<?xml version="1.0" encoding="UTF-8"?>
<svg id="Capa_2" data-name="Capa 2" xmlns="http://www.w3.org/2000/svg" viewBox="0 0 422.72 422.72">
  <defs>
    <style>
      .cls-1 {
        fill: #fff;
      }
    </style>
  </defs>
  <g id="Capa_2-2" data-name="Capa 2">
    <g>
      <path class="cls-1" d="M422.72,211.36c0,116.73-94.63,211.36-211.36,211.36S0,328.09,0,211.36,94.63,0,211.36,0s211.36,94.63,211.36,211.36ZM417.12,211.36c0-113.46-92.3-205.76-205.76-205.76S5.6,97.9,5.6,211.36s92.3,205.76,205.76,205.76,205.76-92.3,205.76-205.76Z"/>
      <path class="cls-1" d="M211.36,8.8C99.67,8.8,8.8,99.66,8.8,211.36c0,4.17.13,8.32.38,12.43.7,11.63,2.4,23.01,5,34.04,21.06,89.37,101.48,156.09,197.18,156.09,111.69,0,202.56-90.87,202.56-202.56S323.05,8.8,211.36,8.8ZM211.36,407.42c-90.04,0-166.1-61.01-189-143.85-4.23-15.27-6.64-31.27-7.01-47.78-.03-1.47-.05-2.95-.05-4.43C15.3,103.25,103.25,15.3,211.36,15.3s196.06,87.95,196.06,196.06-87.95,196.06-196.06,196.06Z"/>
      <path class="cls-1" d="M211.36,84.1c-68.04,0-123.79,53.68-127.1,120.92-.11,2.1-.16,4.21-.16,6.34,0,14.57,2.46,28.58,7,41.63,17.28,49.79,64.66,85.63,120.26,85.63,70.17,0,127.26-57.09,127.26-127.26s-57.09-127.26-127.26-127.26ZM211.36,332.12c-54.14,0-100.08-35.82-115.35-85-3.52-11.31-5.41-23.32-5.41-35.76,0-.73.01-1.45.03-2.17,1.15-65.59,54.87-118.59,120.73-118.59s120.76,54.17,120.76,120.76-54.17,120.76-120.76,120.76Z"/>
      <g>
        <path class="cls-1" d="M98.33,313.72l6.59,6.46-.34.35-.33-.32c-.5-.49-.89-.77-1.17-.85-.29-.08-.56-.06-.82.04-.26.11-.74.52-1.46,1.25l-6.13,6.25c-1.12,1.14-1.77,1.98-1.96,2.52-.19.54-.21,1.13-.05,1.76.16.63.53,1.24,1.14,1.83.69.68,1.43,1.1,2.22,1.26.79.17,1.57.09,2.35-.22s1.83-1.14,3.16-2.5l5.1-5.21c.56-.57.9-1.04,1.02-1.4.12-.36.14-.68.05-.95-.14-.42-.47-.88-.98-1.39l.34-.35,4.42,4.33-.34.35-.26-.26c-.36-.35-.73-.57-1.11-.66-.38-.09-.77-.04-1.15.14-.28.12-.67.44-1.18.96l-4.75,4.85c-1.47,1.5-2.63,2.49-3.48,2.96-.85.47-1.93.61-3.25.42-1.31-.19-2.63-.94-3.96-2.23-1.11-1.08-1.81-2.07-2.13-2.95-.43-1.21-.51-2.29-.23-3.25.28-.96.93-1.97,1.97-3.03l6.13-6.25c.72-.73,1.13-1.23,1.22-1.49s.09-.54,0-.84c-.1-.3-.42-.72-.96-1.24l.34-.35Z"/>
        <path class="cls-1" d="M124.21,336.22l1.14,14.12,4.28-6.38c.6-.89.87-1.58.83-2.06-.07-.66-.52-1.26-1.35-1.8l.27-.41,4.9,3.29-.27.4c-.68-.34-1.17-.52-1.47-.54-.3-.02-.61.08-.92.29-.31.21-.71.66-1.18,1.36l-8.3,12.36-.37-.25-1.74-19.1-6.33,9.44c-.57.85-.77,1.56-.58,2.12.19.56.54,1.01,1.04,1.35l.35.24-.27.4-5.27-3.53.27-.41c.82.54,1.5.76,2.05.64.54-.11,1.08-.56,1.61-1.35l7.03-10.48-.05-.61c-.05-.6-.15-1.05-.31-1.34-.16-.29-.46-.59-.9-.91l.27-.41,5.27,3.53Z"/>
        <path class="cls-1" d="M160.17,355.12l-.19.45c-.57-.16-1.06-.18-1.45-.06-.55.17-1.58.82-3.1,1.95l-6.12,4.42-1.71,3.97c-.36.85-.55,1.39-.55,1.64s.1.5.29.77.51.5.95.69l.92.39-.19.45-9.22-3.96.19-.45.86.37c.48.21.9.29,1.26.24.26-.02.51-.15.75-.37.17-.16.44-.65.79-1.47l1.41-3.29-.84-8.7c-.17-1.72-.36-2.77-.57-3.15-.21-.38-.57-.69-1.1-.92l.19-.45,7.87,3.38-.19.45-.35-.15c-.48-.2-.84-.28-1.09-.22-.25.06-.41.16-.47.31-.12.29-.12,1.16.03,2.61l.63,6.71,5.08-3.69c1.25-.9,1.97-1.54,2.14-1.94.09-.22.07-.44-.08-.68-.19-.32-.64-.66-1.36-1.01l.19-.45,5.02,2.15Z"/>
        <path class="cls-1" d="M181.33,360.36l-1.23,5.83-.53-.12c.1-1.51-.24-2.83-1-3.94-.76-1.12-1.71-1.81-2.83-2.07-.87-.21-1.62-.14-2.24.21-.62.35-1,.82-1.15,1.43-.09.38-.08.75.03,1.09.15.46.46.95.91,1.48.33.38,1.14,1.1,2.43,2.16,1.8,1.48,2.95,2.75,3.45,3.81.49,1.06.6,2.16.33,3.3-.34,1.45-1.21,2.57-2.59,3.35-1.38.78-2.94.96-4.69.55-.55-.13-1.05-.31-1.51-.53-.46-.23-1.02-.58-1.69-1.06-.37-.27-.69-.43-.95-.5-.22-.05-.48-.02-.77.09s-.55.33-.79.64l-.47-.11,1.56-6.57.47.11c-.06,1.94.33,3.52,1.17,4.74.84,1.22,1.88,1.98,3.12,2.28.96.23,1.78.15,2.48-.24s1.12-.93,1.29-1.62c.1-.41.08-.83-.04-1.27-.13-.44-.37-.88-.73-1.33-.36-.45-1.04-1.09-2.04-1.91-1.4-1.15-2.38-2.09-2.94-2.8-.56-.71-.95-1.45-1.16-2.21-.21-.76-.22-1.55-.03-2.36.33-1.38,1.12-2.44,2.37-3.18,1.25-.73,2.65-.92,4.19-.55.56.13,1.1.33,1.59.59.38.2.82.5,1.33.92s.88.65,1.11.7c.22.05.41.03.57-.08s.36-.41.59-.9l.39.09Z"/>
        <path class="cls-1" d="M200.76,380.78l-.04.49-9.31-.83.04-.49.59.05c.52.05.94,0,1.27-.17.24-.1.43-.3.58-.58.11-.2.21-.75.29-1.64l1.05-11.71c.08-.91.08-1.48,0-1.72-.08-.24-.25-.45-.53-.65-.28-.2-.67-.32-1.17-.36l-.59-.05.04-.49,9.31.83-.04.49-.59-.05c-.52-.05-.94,0-1.27.16-.24.1-.44.3-.59.58-.12.2-.21.75-.29,1.64l-1.04,11.71c-.08.91-.08,1.48,0,1.72.08.24.26.45.54.65s.67.32,1.17.36l.59.05Z"/>
        <path class="cls-1" d="M224.62,362.76l.46,5.94-.54.03c-.33-1.48-1.02-2.65-2.07-3.5-1.04-.86-2.15-1.25-3.3-1.19-.9.05-1.59.32-2.09.83s-.73,1.07-.7,1.69c.02.39.13.74.33,1.04.28.4.71.79,1.29,1.16.43.27,1.41.73,2.94,1.39,2.14.92,3.6,1.81,4.38,2.69.77.88,1.18,1.9,1.24,3.08.08,1.49-.44,2.81-1.54,3.94s-2.55,1.75-4.34,1.85c-.56.03-1.1,0-1.6-.09-.51-.09-1.14-.27-1.92-.55-.43-.15-.78-.22-1.05-.21-.23.01-.46.11-.71.3-.25.19-.44.47-.58.83l-.49.03-.35-6.74.49-.03c.49,1.88,1.31,3.28,2.46,4.22,1.15.94,2.37,1.37,3.64,1.31.98-.05,1.75-.36,2.31-.93s.81-1.21.78-1.92c-.02-.42-.16-.82-.4-1.21-.25-.38-.6-.74-1.08-1.07-.47-.33-1.31-.75-2.5-1.26-1.67-.71-2.87-1.33-3.61-1.86-.74-.52-1.32-1.12-1.74-1.8-.42-.67-.65-1.43-.69-2.26-.08-1.42.38-2.66,1.38-3.72.99-1.06,2.28-1.62,3.87-1.71.58-.03,1.14.01,1.7.12.42.08.93.25,1.54.51s1.03.37,1.27.36c.23-.01.4-.09.53-.24.12-.15.23-.49.32-1.03l.4-.02Z"/>
        <path class="cls-1" d="M242.33,360.52l11.07,8.85-1.71-7.49c-.24-1.05-.55-1.72-.93-2.02-.52-.4-1.27-.49-2.23-.25l-.11-.48,5.76-1.31.11.48c-.72.26-1.18.5-1.4.71-.22.21-.36.5-.42.87-.06.37,0,.97.19,1.79l3.31,14.51-.44.1-15.1-11.82,2.53,11.08c.23,1,.61,1.63,1.15,1.87.54.25,1.1.3,1.7.17l.41-.09.11.48-6.18,1.41-.11-.48c.96-.23,1.58-.58,1.87-1.05s.33-1.17.12-2.1l-2.81-12.3-.48-.38c-.47-.38-.87-.61-1.19-.69-.32-.08-.74-.07-1.28.03l-.11-.48,6.18-1.41Z"/>
        <path class="cls-1" d="M272.54,350.55c2.56-1.25,5.01-1.42,7.36-.53,2.34.9,4.05,2.56,5.12,4.99.92,2.07,1.12,4.17.6,6.28-.68,2.8-2.49,4.85-5.43,6.15-2.94,1.3-5.66,1.31-8.15.03-1.97-1.01-3.43-2.6-4.38-4.77-1.07-2.43-1.14-4.82-.21-7.17.94-2.35,2.63-4.01,5.08-4.98ZM273.03,351.26c-1.5.66-2.29,1.93-2.4,3.8-.08,1.54.4,3.48,1.44,5.82,1.23,2.79,2.63,4.63,4.21,5.54,1.1.63,2.26.67,3.49.13.83-.37,1.43-.87,1.81-1.52.48-.83.67-1.89.56-3.2-.11-1.3-.56-2.86-1.36-4.68-.96-2.16-1.87-3.69-2.75-4.59s-1.72-1.43-2.54-1.59c-.82-.17-1.63-.07-2.45.29Z"/>
        <path class="cls-1" d="M305.7,331.2l.28.4c-.47.46-.75,1.07-.84,1.85-.05.57.08,1.73.41,3.49l2.72,14.73-.36.25-13.14-8.18c-1.58-.99-2.56-1.53-2.94-1.64-.38-.1-.87.01-1.49.34l-.28-.4,7.04-4.88.28.4-.24.17c-.64.44-1.01.82-1.13,1.14-.09.22-.06.44.08.65.09.13.23.26.41.4s.71.48,1.57,1.02l8.2,5.14-1.61-8.52c-.2-1.03-.35-1.7-.46-2.03-.11-.32-.22-.58-.35-.76-.15-.22-.34-.37-.57-.45-.23-.09-.49-.09-.77-.03-.4.09-.85.32-1.36.67l-.28-.4,4.82-3.34Z"/>
        <path class="cls-1" d="M327.11,328.96l-4.54,4.39.67,1.77c.23.59.47,1.02.73,1.29.35.36.75.49,1.21.37.27-.06.76-.39,1.48-.99l.34.35-4.27,4.13-.34-.35c.39-.52.59-1.07.58-1.67,0-.6-.26-1.6-.78-3l-5.32-14.7.18-.17,14.83,6.06c1.41.57,2.38.85,2.91.83.4-.01.82-.19,1.24-.54l.34.35-6.22,6.01-.34-.35.26-.25c.5-.48.78-.89.85-1.23.04-.24-.03-.45-.21-.64-.11-.11-.24-.21-.4-.3-.07-.04-.39-.19-.97-.44l-2.23-.94ZM326.11,328.57l-6.19-2.57,2.31,6.33,3.89-3.76Z"/>
      </g>
      <g>
        <path class="cls-1" d="M84.74,97.04l6.54-6.51.34.35-.33.33c-.49.49-.78.88-.86,1.16-.08.29-.07.56.03.82.1.26.51.75,1.23,1.47l6.17,6.21c1.13,1.13,1.96,1.8,2.5,2,.54.2,1.12.22,1.76.07.63-.15,1.25-.52,1.85-1.11.69-.68,1.12-1.42,1.29-2.21.18-.79.11-1.57-.19-2.35-.3-.78-1.12-1.84-2.46-3.19l-5.14-5.17c-.56-.57-1.03-.91-1.39-1.04-.36-.12-.68-.14-.95-.06-.42.14-.89.46-1.4.97l-.34-.35,4.38-4.36.34.35-.26.26c-.35.35-.58.72-.67,1.1s-.05.76.13,1.16c.12.28.43.68.95,1.2l4.79,4.81c1.48,1.49,2.45,2.66,2.91,3.52.46.86.59,1.94.38,3.25-.21,1.31-.97,2.62-2.28,3.93-1.1,1.09-2.09,1.79-2.98,2.09-1.21.41-2.3.48-3.25.19-.96-.29-1.96-.96-3.01-2.01l-6.17-6.21c-.73-.73-1.22-1.14-1.47-1.24-.26-.1-.54-.1-.84,0s-.72.41-1.25.95l-.34-.35Z"/>
        <path class="cls-1" d="M113.35,71.97l13.52,4.22-4.32-6.36c-.6-.89-1.14-1.4-1.6-1.54-.64-.18-1.36,0-2.17.58l-.27-.4,4.89-3.32.27.4c-.57.5-.92.89-1.05,1.17s-.15.59-.08.96.35.9.82,1.6l8.36,12.31-.37.25-18.36-5.52,6.38,9.4c.58.85,1.16,1.29,1.75,1.33.59.03,1.14-.12,1.64-.46l.35-.24.27.4-5.25,3.56-.27-.4c.81-.56,1.26-1.11,1.36-1.66.1-.54-.12-1.21-.65-1.99l-7.09-10.44-.58-.18c-.58-.18-1.03-.25-1.35-.21-.32.04-.72.21-1.18.5l-.27-.4,5.25-3.56Z"/>
        <path class="cls-1" d="M152.54,51.12l.19.45c-.51.31-.86.64-1.04,1.01-.26.51-.49,1.71-.71,3.6l-.99,7.48,1.72,3.97c.37.85.64,1.35.82,1.52.18.17.43.27.76.32.33.04.71-.03,1.15-.22l.92-.4.19.45-9.21,3.98-.19-.45.86-.37c.48-.21.83-.46,1.04-.75.16-.2.24-.47.24-.8,0-.23-.17-.76-.53-1.58l-1.42-3.29-6.9-5.36c-1.37-1.06-2.26-1.64-2.68-1.75-.42-.11-.9-.06-1.42.16l-.19-.45,7.86-3.4.19.45-.35.15c-.48.21-.78.42-.91.64-.13.22-.16.41-.1.56.13.29.76.88,1.92,1.77l5.32,4.15.81-6.23c.21-1.53.23-2.49.06-2.88-.09-.22-.28-.35-.55-.41-.36-.08-.92.01-1.67.29l-.19-.45,5.01-2.17Z"/>
        <path class="cls-1" d="M176.9,43.95l1.52,5.76-.53.12c-.59-1.4-1.48-2.42-2.66-3.07-1.18-.65-2.34-.85-3.46-.58-.87.21-1.51.6-1.91,1.19s-.52,1.18-.38,1.79c.09.38.26.71.51.96.34.34.84.65,1.48.91.47.19,1.52.47,3.14.84,2.27.52,3.87,1.14,4.79,1.86.91.72,1.5,1.66,1.78,2.8.35,1.45.08,2.84-.81,4.16-.88,1.32-2.2,2.18-3.94,2.6-.55.13-1.08.2-1.59.2-.51,0-1.17-.06-1.98-.19-.45-.07-.81-.08-1.07-.02-.22.05-.44.19-.64.42-.21.23-.35.54-.42.93l-.47.11-1.56-6.57.47-.11c.81,1.76,1.87,2.99,3.18,3.71s2.58.93,3.82.63c.96-.23,1.66-.67,2.1-1.33.44-.66.58-1.33.42-2.02-.1-.41-.3-.78-.61-1.12-.31-.33-.73-.62-1.25-.86s-1.42-.5-2.68-.79c-1.77-.4-3.06-.79-3.88-1.18s-1.5-.87-2.03-1.45c-.53-.59-.9-1.29-1.09-2.1-.33-1.39-.1-2.69.69-3.9.79-1.22,1.95-2.01,3.5-2.38.56-.13,1.13-.2,1.69-.18.43,0,.96.08,1.6.22.64.14,1.08.18,1.31.13.22-.05.38-.16.48-.33.1-.17.14-.52.12-1.07l.39-.09Z"/>
        <path class="cls-1" d="M202.46,58.52l.04.49-9.31.82-.04-.49.59-.05c.52-.05.92-.17,1.22-.39.22-.14.37-.37.47-.68.08-.22.08-.77,0-1.67l-1.03-11.71c-.08-.91-.18-1.48-.29-1.69-.12-.22-.33-.4-.64-.55-.31-.15-.71-.2-1.21-.15l-.59.05-.04-.49,9.31-.82.04.49-.59.05c-.52.05-.92.17-1.22.39-.22.14-.38.37-.48.68-.08.22-.08.77,0,1.67l1.03,11.71c.08.91.18,1.48.3,1.69.12.22.34.4.64.55.31.14.71.2,1.21.15l.59-.05Z"/>
        <path class="cls-1" d="M226.18,41.09l-.19,5.96-.54-.03c-.17-1.51-.73-2.74-1.67-3.71s-2-1.48-3.16-1.54c-.89-.05-1.62.15-2.17.6-.55.45-.84.99-.88,1.61-.02.39.05.75.22,1.07.23.43.62.86,1.16,1.29.4.31,1.32.88,2.77,1.7,2.03,1.14,3.38,2.19,4.06,3.15.67.95.97,2.02.9,3.19-.08,1.49-.74,2.74-1.96,3.75-1.22,1.01-2.73,1.46-4.52,1.36-.56-.03-1.09-.12-1.58-.26-.49-.14-1.11-.39-1.85-.75-.41-.2-.75-.31-1.03-.32-.23-.01-.47.06-.74.22-.26.16-.49.42-.66.77l-.49-.03.38-6.74.49.03c.28,1.92.94,3.4,1.99,4.46,1.04,1.06,2.2,1.62,3.48,1.69.98.06,1.78-.17,2.39-.67.61-.5.94-1.11.98-1.82.02-.42-.07-.84-.27-1.24-.2-.41-.52-.8-.96-1.18s-1.22-.89-2.34-1.52c-1.58-.89-2.71-1.63-3.39-2.24-.68-.6-1.19-1.26-1.53-1.97-.34-.71-.49-1.49-.44-2.32.08-1.42.67-2.6,1.77-3.55,1.1-.94,2.44-1.37,4.03-1.28.58.03,1.14.13,1.67.31.41.13.9.35,1.47.67s.98.48,1.22.5c.23.01.41-.05.55-.18s.28-.46.43-.99l.39.02Z"/>
        <path class="cls-1" d="M247.3,44.73l6.06,12.81,1.75-7.48c.25-1.04.26-1.78.05-2.22-.29-.59-.93-.99-1.9-1.2l.11-.48,5.75,1.35-.11.48c-.76-.08-1.28-.07-1.57.02-.29.09-.54.29-.76.59s-.43.87-.62,1.69l-3.4,14.49-.44-.1-8.38-17.25-2.59,11.06c-.23,1-.16,1.73.21,2.19.38.46.86.76,1.45.89l.41.1-.11.47-6.17-1.45.11-.48c.96.22,1.67.18,2.14-.12.47-.3.81-.91,1.03-1.83l2.88-12.28-.26-.55c-.26-.55-.51-.93-.76-1.14-.25-.21-.64-.39-1.16-.53l.11-.48,6.17,1.45Z"/>
        <path class="cls-1" d="M281.34,55.7c2.64,1.08,4.41,2.79,5.3,5.13.9,2.34.8,4.72-.3,7.14-.93,2.07-2.36,3.61-4.28,4.64-2.54,1.36-5.28,1.38-8.2.06-2.93-1.32-4.75-3.34-5.45-6.05-.56-2.14-.35-4.29.62-6.44,1.09-2.42,2.83-4.06,5.2-4.93,2.38-.87,4.74-.71,7.1.47ZM281.14,56.54c-1.49-.67-2.97-.42-4.43.75-1.2.96-2.32,2.62-3.38,4.95-1.26,2.78-1.7,5.05-1.32,6.83.26,1.24,1,2.13,2.23,2.69.83.37,1.6.48,2.34.33.94-.19,1.86-.77,2.76-1.71.9-.95,1.76-2.33,2.58-4.14.97-2.15,1.5-3.86,1.58-5.11.08-1.25-.09-2.24-.51-2.96-.42-.72-1.04-1.26-1.85-1.63Z"/>
        <path class="cls-1" d="M317.47,77.75l-.28.4c-.59-.29-1.27-.34-2.02-.16-.55.15-1.6.67-3.14,1.57l-12.92,7.58-.36-.25,3.22-15.14c.39-1.82.57-2.93.54-3.32-.03-.39-.31-.82-.83-1.28l.28-.4,6.99,4.96-.28.4-.24-.17c-.63-.45-1.12-.67-1.46-.68-.24,0-.44.09-.58.3-.09.13-.17.3-.24.52s-.21.83-.42,1.83l-2.04,9.46,7.47-4.42c.9-.54,1.48-.91,1.75-1.12.27-.21.47-.41.6-.59.15-.21.23-.45.23-.69,0-.25-.08-.49-.24-.73-.22-.34-.59-.69-1.1-1.05l.28-.4,4.79,3.39Z"/>
        <path class="cls-1" d="M323.36,100.53l-4.48-4.45-1.76.71c-.58.24-1.01.49-1.27.76-.35.36-.47.76-.35,1.21.07.27.41.75,1.02,1.46l-.34.35-4.22-4.19.34-.35c.52.38,1.08.57,1.68.55.6-.02,1.59-.3,2.98-.84l14.58-5.62.18.18-5.75,14.95c-.54,1.42-.8,2.4-.77,2.93.02.4.21.81.56,1.23l-.34.35-6.14-6.09.34-.35.25.25c.49.49.91.76,1.24.82.24.04.45-.04.63-.23.11-.11.21-.25.29-.4.04-.07.18-.4.42-.98l.9-2.25ZM323.73,99.53l2.44-6.25-6.28,2.44,3.84,3.81Z"/>
      </g>
      <path class="cls-1" d="M96.01,248.12c-1.4,2.05-3.05,4.01-4.91,5.87-7.62,7.61-18.91,13.41-32.08,15.6-13.75,2.28-26.84.19-36.66-5.02-3.07-1.62-5.83-3.56-8.18-5.74-2.6-11.03-4.3-22.41-5-34.04,1.62-2.81,3.7-5.5,6.17-8,7.62-7.7,18.99-13.57,32.27-15.78,13.74-2.28,26.82-.19,36.64,5.01,2.32,1.22,4.45,2.62,6.37,4.17-.02.72-.03,1.44-.03,2.17,0,12.44,1.89,24.45,5.41,35.76ZM50.69,237.65h-.69c-.43.88-.78,1.45-1.05,1.72-.27.27-.61.47-1.02.58-.41.11-1.3.17-2.68.17h-5.58c4.32-4.2,7.12-7.48,8.4-9.83.94-1.74,1.41-3.45,1.41-5.14,0-.93-.3-1.92-.91-2.98-.61-1.06-1.45-1.89-2.53-2.5s-2.27-.91-3.58-.91c-1.83,0-3.44.58-4.84,1.75-1.4,1.17-2.44,2.97-3.12,5.41l.7.25c1.08-1.96,2.6-2.93,4.55-2.93,1.19,0,2.2.44,3.03,1.32.83.88,1.24,1.99,1.24,3.32,0,1.83-.5,3.7-1.5,5.62s-3.82,5.65-8.48,11.2v.42h15.2l1.45-7.46ZM69.39,224.42c-.61-1.73-1.56-3.1-2.87-4.12-1.3-1.02-2.7-1.53-4.2-1.53s-2.87.52-4.19,1.55c-1.32,1.03-2.3,2.52-2.95,4.46-.79,2.35-1.18,4.93-1.18,7.73,0,2.07.27,4.08.82,6.02.42,1.44.91,2.58,1.47,3.45.77,1.18,1.66,2.09,2.67,2.72s2.13.95,3.37.95c1.09,0,2.1-.26,3.03-.77.93-.51,1.75-1.21,2.49-2.08.73-.88,1.31-2,1.74-3.37.72-2.23,1.09-4.64,1.09-7.22,0-2.82-.43-5.41-1.28-7.79ZM64.72,240.36c-.08,1.49-.38,2.58-.91,3.29-.32.41-.79.61-1.43.61-.58,0-1.05-.15-1.41-.46s-.63-.91-.82-1.81c-.25-1.24-.38-3.69-.38-7.35,0-6.72.08-10.63.25-11.76.17-1.12.48-1.91.95-2.35.32-.3.75-.46,1.29-.46.71,0,1.22.2,1.54.61.48.62.79,1.82.91,3.58.05.75.08,3.38.08,7.9l-.08,8.19Z"/>
      <path class="cls-1" d="M332.12,212.36c0-.73-.01-1.45-.03-2.17,1.92-1.55,4.05-2.95,6.37-4.17,9.82-5.2,22.9-7.29,36.64-5.01,13.28,2.21,24.65,8.08,32.27,15.78,2.47,2.5,4.55,5.19,6.17,8-.7,11.63-2.4,23.01-5,34.04-2.35,2.18-5.11,4.12-8.18,5.74-9.82,5.21-22.91,7.3-36.66,5.02-13.17-2.19-24.46-7.99-32.08-15.6-1.86-1.86-3.51-3.82-4.91-5.87,3.52-11.31,5.41-23.32,5.41-35.76ZM368.22,237.65h-.69c-.43.88-.78,1.45-1.05,1.72-.27.27-.61.47-1.02.58s-1.3.17-2.67.17h-5.58c4.32-4.2,7.12-7.48,8.4-9.83.94-1.74,1.41-3.45,1.41-5.14,0-.93-.3-1.92-.91-2.98-.61-1.06-1.45-1.89-2.53-2.5s-2.27-.91-3.58-.91c-1.83,0-3.44.58-4.84,1.75-1.4,1.17-2.44,2.97-3.12,5.41l.7.25c1.08-1.96,2.6-2.93,4.55-2.93,1.19,0,2.2.44,3.03,1.32.83.88,1.24,1.99,1.24,3.32,0,1.83-.5,3.7-1.5,5.62-1,1.92-3.82,5.65-8.48,11.2v.42h15.2l1.45-7.46ZM371.44,232.32c.69-.01,1.2-.02,1.54-.02,3.4,0,6.22.7,8.45,2.09s3.35,3.21,3.35,5.45c0,1.07-.37,1.98-1.09,2.74-.73.76-1.62,1.14-2.66,1.14-.5,0-.94-.08-1.33-.23-.56-.2-1.23-.57-2-1.1-1.23-.86-2.1-1.4-2.61-1.6s-1.01-.3-1.5-.3c-.55,0-1.03.21-1.44.63-.41.42-.62.9-.62,1.45,0,.71.39,1.35,1.18,1.9,1.13.79,2.75,1.18,4.86,1.18,1.95,0,3.75-.41,5.39-1.23,1.64-.82,2.91-1.99,3.81-3.5.9-1.52,1.35-3.07,1.35-4.66,0-2.48-.97-4.54-2.91-6.21-2.36-2.02-5.73-3.11-10.11-3.27l.97-2.57h10.17l1.92-4.91h-12.09l-4.63,13.02Z"/>
      <g>
        <path class="cls-1" d="M211.36,94.8c-64.27,0-116.56,52.29-116.56,116.56s52.29,116.56,116.56,116.56,116.56-52.29,116.56-116.56-52.29-116.56-116.56-116.56ZM270.36,127.67l1.51-4.64,1.51,4.64h4.88l-3.95,2.87,1.51,4.64-3.95-2.87-3.95,2.87,1.51-4.64-3.95-2.87h4.88ZM240.62,114.73l2.09-6.44,2.09,6.44h6.77l-5.48,3.98,2.09,6.44-5.48-3.98-5.48,3.98,2.09-6.44-5.48-3.98h6.77ZM208.68,105.49l2.68-8.24,2.68,8.24h8.66l-7.01,5.09,2.68,8.24-7.01-5.09-7.01,5.09,2.68-8.24-7.01-5.09h8.66ZM177.91,114.73l2.09-6.44,2.09,6.44h6.77l-5.48,3.98,2.09,6.44-5.48-3.98-5.48,3.98,2.09-6.44-5.48-3.98h6.77ZM149.34,127.67l1.51-4.64,1.51,4.64h4.88l-3.95,2.87,1.51,4.64-3.95-2.87-3.95,2.87,1.51-4.64-3.95-2.87h4.88ZM295.07,221.97c-3.5,13.72-10.88,33.03-26.84,51.34-21.23,24.35-46.11,33.71-56.87,37.07-10.76-3.36-35.64-12.72-56.87-37.07-15.96-18.31-23.34-37.62-26.84-51.34-1.84-7.21-2.73-14.63-2.73-22.08v-44.01l86.44-34.07,86.44,34.07v44.01c0,7.45-.89,14.86-2.73,22.08Z"/>
        <path class="cls-1" d="M131.92,160.65v39.24c0,6.97.85,13.81,2.51,20.35,3.19,12.52,10.18,31.09,25.34,48.47,17.2,19.73,37.18,29.51,51.59,34.32,14.41-4.8,34.39-14.59,51.59-34.32,15.16-17.39,22.14-35.96,25.34-48.47,1.67-6.53,2.51-13.38,2.51-20.35v-39.24l-79.44-31.31-79.44,31.31ZM201.69,177.42c.67-.14,2.55.08,2.55.66v26.65c-7.79-1.82-15.94-1.94-23.95-1.33-.12-.64.9-.61,1.42-.74,6.23-1.51,13.71-1.37,19.97-.14v-25.11ZM198.12,172.58l2.55.44v28.2c-7.47-.77-14.7-.66-21.91,1.32-.28-1.26.39-.71,1.11-1,1.45-.58,7.13-2.53,8.31-2.53h9.94v-26.43ZM173.16,173.9c7.29-3.98,15.11-6.99,23.95-5.73v29.96h-8.41c-1.39,0-7.32,1.83-8.91,2.43-2.37.91-4.39,2.22-6.63,3.3v-29.96ZM148.19,168.17c8.5-1.04,17.52,1.46,23.95,6.39v29.3c-2.69-1.05-5.06-2.61-7.81-3.6-1.61-.58-6.27-2.13-7.73-2.13h-8.41v-29.96ZM144.62,173.24c0-.58,1.88-.81,2.55-.66v26.43h9.43c1.93,0,8.46,2.09,9.94,3.52-7.16-1.87-14.5-2.17-21.91-1.32v-27.98ZM141.05,177.42h2.55v25.11c6.26-1.23,13.74-1.37,19.97.14.53.13,1.54.1,1.42.74-8.15-.89-15.88,0-23.95.89v-26.87ZM211.36,300.81c-13.66-4.64-33.2-14.2-50.01-33.48-14.88-17.07-21.75-35.31-24.88-47.61-.19-.76-.38-1.52-.54-2.28h59.53c8.78,0,15.9,7.12,15.9,15.9v67.47ZM214.48,220.61l-3.12-2.27-3.12,2.27,1.19-3.67-3.12-2.27h3.86l1.19-3.67,1.19,3.67h3.86l-3.12,2.27,1.19,3.67ZM256.1,262.74c-.89,2.51-2.97,4.65-5.01,6.26.96.27,2.05-.2,2.96-.49.3-.1.69-.16.48.25-.12.24-2.98,2.22-3.47,2.52-2.59,1.61-5.7,3.07-8.72,3.58-.1-.4.17-.46.34-.69.83-1.08,1.92-2.01,2.74-3.24,1.31-1.97,2.56-4.54,2.55-6.88-.27.33-1.59,1.43-1.96,1.15,1.11-1.84,1.58-3.82,1.38-5.98-.85.62-.96,1.47-1.86,2.17-3.2,2.47-5.98-1.34-5.49-4.57.32-2.09,2.33-3.5,3.55-4.96.15-.18.6-.46.23-.69-5.64,2.4-9.12,5.77-8.63,12.31.06.77,1.09,2.28-.33,2.19-1.17-.08-2.63-2.59-3.12-2.3-.03,4.33,1.74,8.17,5.31,10.68.52.37,1.29.45,1.6,1.05-5.42-.32-10.66-2.14-14.03-6.55.43-.59.39-.13.71-.03.98.33,1.93.71,2.97.83-5.82-5.33-5.8-13.49-1.04-19.55.52.21.26,4.45,2.12,5.01,1.44.44,2.15-1.06,2.55-2.19.97-2.74.22-5.47.54-8.21.26-2.2,1.55-4.34,3.08-5.89.43-.01.27,2.59,1.43,2.94,1.95.61,2.83-2.53,2.85-3.98.05-2.89-2.46-5.3-3.7-7.7,3.67.87,7.17,3.18,9.76,5.88,2.06,2.14,4.02,5.22,4.28,8.26.14,1.67-.93,8.5,1.3,9.07,1.31.33,1.78-3.05,2.02-3.89.07-.22.04-.52.34-.46,1.84,4.55,4,9.14,2.25,14.1ZM211.36,131.6l77.34,30.48v37.81c0,5.23-.49,10.38-1.46,15.38h-59.98c-8.78,0-15.9-7.11-15.9-15.9v-67.77Z"/>
      </g>
      <g>
        <path class="cls-1" d="M226.55,175.72c-.91,1.23.28,1.23.78,1.52,2.99,1.78,23.21,10.83,25.52,10.93,4.7.2,13.35-6.94,18.52-7.36l-18.27-5.14,18.53,3.69c1.28,1.78,1.32,5.2,1.04,6.08-.1.31-.57.58-.61.89-.05.39.43.76.46,1.28.05.91-.43,2.96-.48,4.05-.06,1.17.03,2.35,0,3.52.81-.75,1.2-.75,2.01,0l-.51-15.34c.18-.97,4.39-2.04,5.33-2.61.65-.39,1,.35.78-1.52l-26.79-10.94-26.33,10.94Z"/>
        <path class="cls-1" d="M237.06,182.29v12.8c0,1.48,2.64,3.96,3.66,4.66,6.23,4.29,19.43,4.3,25.5-.49.57-.45,2.93-3.05,2.93-3.44v-13.53c-4.23,1.02-12.04,6.84-15.86,7.1-3.2.22-12.46-6.26-16.24-7.1Z"/>
      </g>
      <path class="cls-1" d="M158.1,225.75c-.01.08-.07.12-.13.15-1.78,1.04-2.32,3.31-2.03,5.24.51,3.39,2.64,6.31,4.83,8.81,1.1,1.26,2.77,3.11,4.28,3.82.59.28,1.28.47,1.92.59.02.08-.17.08-.22.08-.58,0-1.43-.08-2-.19-.13-.03-.81-.26-.86-.17.04.22.15.42.26.62,1.04,1.98,2.83,4.2,4.98,4.98.39.14.81.22,1.2.36-.08.04-.22.03-.31.03-.52,0-1.12-.09-1.62-.21-.13-.03-.69-.28-.77-.2-.06.22.15.4.29.56.97,1.1,2.51,2.11,3.93,2.5.08.02.46.07.48.08,0,0,.04.09,0,.09-.44-.06-.91,0-1.35-.06-.13-.02-.81-.26-.75.03.04.17.59,1.04.72,1.26,2.17,3.47,5.3,7.27,9.13,8.91.6.26,1.38.49,1.96.65,1.16.31,2.27.52,3.49.47l-1.14.44c-1.66.34-3.31.22-4.86-.47-.21-.09-.67-.39-.83-.43-.18-.04-.23.09-.15.24.08.14.72.78.88.93,1.21,1.17,2.67,1.86,4.26,2.28l.78.18-.79.18c-.48.11-1.3-.05-1.75-.25-.1-.04-.1-.17-.23-.11-.21.09,0,.28.09.39,1.45,1.81,4.73,2.14,6.86,1.78.53-.09,1.03-.29,1.57-.32-.09.23-.23.39-.32.62-.18.43-.34,1.21-.27,1.67.03.19.12.24.23.07.15-.24.24-.74.4-1.03.1-.2.31-.49.45-.67.21-.25.36-.18.2-.55-4.22-6.89-8.71-13.61-13.54-20.09-4.52-6.07-9.29-12.01-14.85-17.16v-.1c.4.31.8.67,1.19,1.01,3.26,2.91,6.21,6.21,9,9.57,9.2,11.11,17.05,23.22,24.32,35.62.71,1.21,1.38,2.48,2.11,3.66.21.34.48.51.82.71l.3-.07c0-.25-.16-.38-.25-.56-1.07-2.11-2.4-4.2-3.6-6.25s-2.48-4.31-3.8-6.37c-.06-.09-.35-.41-.35-.48-.02-.15.99-.35,1.14-.38.61-.1,1.19-.02,1.78.01.12,0,.72.05.76-.02,0-.06-.02-.11-.06-.16-.13-.16-1.62-.6-1.9-.65-.37-.07-.76-.13-1.11,0-.04-.09,0-.07.03-.11.13-.14.47-.32.65-.47.16-.13.38-.36.52-.51.07-.08.52-.61.53-.66.02-.06,0-.12-.02-.18-.83.3-1.66,1.02-2.59.89-.12-.8-.08-1.62.05-2.42.17-1.05.49-2.01.82-3,.05-.16.23-.6.24-.73,0-.05-.05-.16-.06-.16-.18-.08-1.03,1.05-1.2,1.21l-.78,1.28c-.07-.3-.23-.56-.33-.85-.05-.14-.05-.29-.1-.43-3.31-9.33-9.91-17.33-16.82-24.24-3.06-3.06-6.3-6.1-9.8-8.67-1.2-.88-3.51-2.6-4.96-2.72-.07,0-.15,0-.2-.07l-.73.17Z"/>
    </g>
  </g>
</svg>