<?xml version="1.0" encoding="utf-8"?>
<!-- Generator: Adobe Illustrator 29.4.0, SVG Export Plug-In . SVG Version: 9.03 Build 0)  -->
<svg version="1.0" id="Capa_2" xmlns="http://www.w3.org/2000/svg" xmlns:xlink="http://www.w3.org/1999/xlink" x="0px" y="0px"
	 viewBox="0 0 1246.72 422.72" style="enable-background:new 0 0 1246.72 422.72;" xml:space="preserve">
<style type="text/css">
	.st0{fill:#FFFFFF;}
</style>
<g>
	<path class="st0" d="M422.72,211.36c0,116.73-94.63,211.36-211.36,211.36S0,328.09,0,211.36S94.63,0,211.36,0
		S422.72,94.63,422.72,211.36z M417.12,211.36C417.12,97.9,324.82,5.6,211.36,5.6S5.6,97.9,5.6,211.36
		c0,113.46,92.3,205.76,205.76,205.76S417.12,324.82,417.12,211.36z"/>
	<path class="st0" d="M211.36,8.8C99.67,8.8,8.8,99.66,8.8,211.36c0,4.17,0.13,8.32,0.38,12.43c0.7,11.63,2.4,23.01,5,34.04
		c21.06,89.37,101.48,156.09,197.18,156.09c111.69,0,202.56-90.87,202.56-202.56C413.92,99.66,323.05,8.8,211.36,8.8z
		 M211.36,407.42c-90.04,0-166.1-61.01-189-143.85c-4.23-15.27-6.64-31.27-7.01-47.78c-0.03-1.47-0.05-2.95-0.05-4.43
		c0-108.11,87.95-196.06,196.06-196.06s196.06,87.95,196.06,196.06S319.47,407.42,211.36,407.42z"/>
	<path class="st0" d="M211.36,84.1c-68.04,0-123.79,53.68-127.1,120.92c-0.11,2.1-0.16,4.21-0.16,6.34c0,14.57,2.46,28.58,7,41.63
		c17.28,49.79,64.66,85.63,120.26,85.63c70.17,0,127.26-57.09,127.26-127.26S281.53,84.1,211.36,84.1z M211.36,332.12
		c-54.14,0-100.08-35.82-115.35-85c-3.52-11.31-5.41-23.32-5.41-35.76c0-0.73,0.01-1.45,0.03-2.17
		C91.78,143.6,145.5,90.6,211.36,90.6c66.59,0,120.76,54.17,120.76,120.76C332.12,277.94,277.95,332.12,211.36,332.12z"/>
	<g>
		<g>
			<path class="st0" d="M98.33,313.72l6.59,6.46l-0.34,0.35l-0.33-0.32c-0.5-0.49-0.89-0.77-1.17-0.85
				c-0.29-0.08-0.56-0.06-0.82,0.04c-0.26,0.11-0.74,0.52-1.46,1.25l-6.13,6.25c-1.12,1.14-1.77,1.98-1.96,2.52
				c-0.19,0.54-0.21,1.13-0.05,1.76c0.16,0.63,0.53,1.24,1.14,1.83c0.69,0.68,1.43,1.1,2.22,1.26c0.79,0.17,1.57,0.09,2.35-0.22
				s1.83-1.14,3.16-2.5l5.1-5.21c0.56-0.57,0.9-1.04,1.02-1.4c0.12-0.36,0.14-0.68,0.05-0.95c-0.14-0.42-0.47-0.88-0.98-1.39
				l0.34-0.35l4.42,4.33l-0.34,0.35l-0.26-0.26c-0.36-0.35-0.73-0.57-1.11-0.66c-0.38-0.09-0.77-0.04-1.15,0.14
				c-0.28,0.12-0.67,0.44-1.18,0.96l-4.75,4.85c-1.47,1.5-2.63,2.49-3.48,2.96c-0.85,0.47-1.93,0.61-3.25,0.42
				c-1.31-0.19-2.63-0.94-3.96-2.23c-1.11-1.08-1.81-2.07-2.13-2.95c-0.43-1.21-0.51-2.29-0.23-3.25c0.28-0.96,0.93-1.97,1.97-3.03
				l6.13-6.25c0.72-0.73,1.13-1.23,1.22-1.49s0.09-0.54,0-0.84c-0.1-0.3-0.42-0.72-0.96-1.24L98.33,313.72z"/>
			<path class="st0" d="M124.21,336.22l1.14,14.12l4.28-6.38c0.6-0.89,0.87-1.58,0.83-2.06c-0.07-0.66-0.52-1.26-1.35-1.8l0.27-0.41
				l4.9,3.29l-0.27,0.4c-0.68-0.34-1.17-0.52-1.47-0.54c-0.3-0.02-0.61,0.08-0.92,0.29c-0.31,0.21-0.71,0.66-1.18,1.36l-8.3,12.36
				l-0.37-0.25l-1.74-19.1l-6.33,9.44c-0.57,0.85-0.77,1.56-0.58,2.12c0.19,0.56,0.54,1.01,1.04,1.35l0.35,0.24l-0.27,0.4
				l-5.27-3.53l0.27-0.41c0.82,0.54,1.5,0.76,2.05,0.64c0.54-0.11,1.08-0.56,1.61-1.35l7.03-10.48l-0.05-0.61
				c-0.05-0.6-0.15-1.05-0.31-1.34c-0.16-0.29-0.46-0.59-0.9-0.91l0.27-0.41L124.21,336.22z"/>
			<path class="st0" d="M160.17,355.12l-0.19,0.45c-0.57-0.16-1.06-0.18-1.45-0.06c-0.55,0.17-1.58,0.82-3.1,1.95l-6.12,4.42
				l-1.71,3.97c-0.36,0.85-0.55,1.39-0.55,1.64s0.1,0.5,0.29,0.77s0.51,0.5,0.95,0.69l0.92,0.39l-0.19,0.45l-9.22-3.96l0.19-0.45
				l0.86,0.37c0.48,0.21,0.9,0.29,1.26,0.24c0.26-0.02,0.51-0.15,0.75-0.37c0.17-0.16,0.44-0.65,0.79-1.47l1.41-3.29l-0.84-8.7
				c-0.17-1.72-0.36-2.77-0.57-3.15c-0.21-0.38-0.57-0.69-1.1-0.92l0.19-0.45l7.87,3.38l-0.19,0.45l-0.35-0.15
				c-0.48-0.2-0.84-0.28-1.09-0.22c-0.25,0.06-0.41,0.16-0.47,0.31c-0.12,0.29-0.12,1.16,0.03,2.61l0.63,6.71l5.08-3.69
				c1.25-0.9,1.97-1.54,2.14-1.94c0.09-0.22,0.07-0.44-0.08-0.68c-0.19-0.32-0.64-0.66-1.36-1.01l0.19-0.45L160.17,355.12z"/>
			<path class="st0" d="M181.33,360.36l-1.23,5.83l-0.53-0.12c0.1-1.51-0.24-2.83-1-3.94c-0.76-1.12-1.71-1.81-2.83-2.07
				c-0.87-0.21-1.62-0.14-2.24,0.21c-0.62,0.35-1,0.82-1.15,1.43c-0.09,0.38-0.08,0.75,0.03,1.09c0.15,0.46,0.46,0.95,0.91,1.48
				c0.33,0.38,1.14,1.1,2.43,2.16c1.8,1.48,2.95,2.75,3.45,3.81c0.49,1.06,0.6,2.16,0.33,3.3c-0.34,1.45-1.21,2.57-2.59,3.35
				c-1.38,0.78-2.94,0.96-4.69,0.55c-0.55-0.13-1.05-0.31-1.51-0.53c-0.46-0.23-1.02-0.58-1.69-1.06c-0.37-0.27-0.69-0.43-0.95-0.5
				c-0.22-0.05-0.48-0.02-0.77,0.09s-0.55,0.33-0.79,0.64l-0.47-0.11l1.56-6.57l0.47,0.11c-0.06,1.94,0.33,3.52,1.17,4.74
				c0.84,1.22,1.88,1.98,3.12,2.28c0.96,0.23,1.78,0.15,2.48-0.24s1.12-0.93,1.29-1.62c0.1-0.41,0.08-0.83-0.04-1.27
				c-0.13-0.44-0.37-0.88-0.73-1.33c-0.36-0.45-1.04-1.09-2.04-1.91c-1.4-1.15-2.38-2.09-2.94-2.8c-0.56-0.71-0.95-1.45-1.16-2.21
				c-0.21-0.76-0.22-1.55-0.03-2.36c0.33-1.38,1.12-2.44,2.37-3.18c1.25-0.73,2.65-0.92,4.19-0.55c0.56,0.13,1.1,0.33,1.59,0.59
				c0.38,0.2,0.82,0.5,1.33,0.92s0.88,0.65,1.11,0.7c0.22,0.05,0.41,0.03,0.57-0.08s0.36-0.41,0.59-0.9L181.33,360.36z"/>
			<path class="st0" d="M200.76,380.78l-0.04,0.49l-9.31-0.83l0.04-0.49l0.59,0.05c0.52,0.05,0.94-0.01,1.27-0.17
				c0.24-0.1,0.43-0.3,0.58-0.58c0.11-0.2,0.21-0.75,0.29-1.64l1.05-11.71c0.08-0.91,0.08-1.48,0.01-1.72
				c-0.08-0.24-0.25-0.45-0.53-0.65c-0.28-0.2-0.67-0.32-1.17-0.36l-0.59-0.05l0.04-0.49l9.31,0.83l-0.04,0.49l-0.59-0.05
				c-0.52-0.05-0.94,0.01-1.27,0.16c-0.24,0.1-0.44,0.3-0.59,0.58c-0.12,0.2-0.21,0.75-0.29,1.64l-1.04,11.71
				c-0.08,0.91-0.08,1.48,0,1.72c0.08,0.24,0.26,0.45,0.54,0.65s0.67,0.32,1.17,0.36L200.76,380.78z"/>
			<path class="st0" d="M224.62,362.76l0.46,5.94l-0.54,0.03c-0.33-1.48-1.02-2.65-2.07-3.5c-1.04-0.86-2.15-1.25-3.3-1.19
				c-0.9,0.05-1.59,0.32-2.09,0.83s-0.73,1.07-0.7,1.69c0.02,0.39,0.13,0.74,0.33,1.04c0.28,0.4,0.71,0.79,1.29,1.16
				c0.43,0.27,1.41,0.73,2.94,1.39c2.14,0.92,3.6,1.81,4.38,2.69c0.77,0.88,1.18,1.9,1.24,3.08c0.08,1.49-0.44,2.81-1.54,3.94
				s-2.55,1.75-4.34,1.85c-0.56,0.03-1.1,0-1.6-0.09c-0.51-0.09-1.14-0.27-1.92-0.55c-0.43-0.15-0.78-0.22-1.05-0.21
				c-0.23,0.01-0.46,0.11-0.71,0.3c-0.25,0.19-0.44,0.47-0.58,0.83l-0.49,0.03l-0.35-6.74l0.49-0.03c0.49,1.88,1.31,3.28,2.46,4.22
				c1.15,0.94,2.37,1.37,3.64,1.31c0.98-0.05,1.75-0.36,2.31-0.93s0.81-1.21,0.78-1.92c-0.02-0.42-0.16-0.82-0.4-1.21
				c-0.25-0.38-0.6-0.74-1.08-1.07c-0.47-0.33-1.31-0.75-2.5-1.26c-1.67-0.71-2.87-1.33-3.61-1.86c-0.74-0.52-1.32-1.12-1.74-1.8
				c-0.42-0.67-0.65-1.43-0.69-2.26c-0.08-1.42,0.38-2.66,1.38-3.72c0.99-1.06,2.28-1.62,3.87-1.71c0.58-0.03,1.14,0.01,1.7,0.12
				c0.42,0.08,0.93,0.25,1.54,0.51s1.03,0.37,1.27,0.36c0.23-0.01,0.4-0.09,0.53-0.24c0.12-0.15,0.23-0.49,0.32-1.03L224.62,362.76z
				"/>
			<path class="st0" d="M242.33,360.52l11.07,8.85l-1.71-7.49c-0.24-1.05-0.55-1.72-0.93-2.02c-0.52-0.4-1.27-0.49-2.23-0.25
				l-0.11-0.48l5.76-1.31l0.11,0.48c-0.72,0.26-1.18,0.5-1.4,0.71c-0.22,0.21-0.36,0.5-0.42,0.87c-0.06,0.37,0,0.97,0.19,1.79
				l3.31,14.51l-0.44,0.1l-15.1-11.82l2.53,11.08c0.23,1,0.61,1.63,1.15,1.87c0.54,0.25,1.1,0.3,1.7,0.17l0.41-0.09l0.11,0.48
				l-6.18,1.41l-0.11-0.48c0.96-0.23,1.58-0.58,1.87-1.05s0.33-1.17,0.12-2.1l-2.81-12.3l-0.48-0.38c-0.47-0.38-0.87-0.61-1.19-0.69
				c-0.32-0.08-0.74-0.07-1.28,0.03l-0.11-0.48L242.33,360.52z"/>
			<path class="st0" d="M272.54,350.55c2.56-1.25,5.01-1.42,7.36-0.53c2.34,0.9,4.05,2.56,5.12,4.99c0.92,2.07,1.12,4.17,0.6,6.28
				c-0.68,2.8-2.49,4.85-5.43,6.15c-2.94,1.3-5.66,1.31-8.15,0.03c-1.97-1.01-3.43-2.6-4.38-4.77c-1.07-2.43-1.14-4.82-0.21-7.17
				C268.39,353.18,270.09,351.52,272.54,350.55z M273.03,351.26c-1.5,0.66-2.29,1.93-2.4,3.8c-0.08,1.54,0.4,3.48,1.44,5.82
				c1.23,2.79,2.63,4.63,4.21,5.54c1.1,0.63,2.26,0.67,3.49,0.13c0.83-0.37,1.43-0.87,1.81-1.52c0.48-0.83,0.67-1.89,0.56-3.2
				c-0.11-1.3-0.56-2.86-1.36-4.68c-0.96-2.16-1.87-3.69-2.75-4.59s-1.72-1.43-2.54-1.59C274.66,350.8,273.84,350.9,273.03,351.26z"
				/>
			<path class="st0" d="M305.7,331.2l0.28,0.4c-0.47,0.46-0.75,1.07-0.84,1.85c-0.05,0.57,0.08,1.73,0.41,3.49l2.72,14.73
				l-0.36,0.25l-13.14-8.18c-1.58-0.99-2.56-1.53-2.94-1.64c-0.38-0.1-0.87,0.01-1.49,0.34l-0.28-0.4l7.04-4.88l0.28,0.4l-0.24,0.17
				c-0.64,0.44-1.01,0.82-1.13,1.14c-0.09,0.22-0.06,0.44,0.08,0.65c0.09,0.13,0.23,0.26,0.41,0.4s0.71,0.48,1.57,1.02l8.2,5.14
				l-1.61-8.52c-0.2-1.03-0.35-1.7-0.46-2.03c-0.11-0.32-0.22-0.58-0.35-0.76c-0.15-0.22-0.34-0.37-0.57-0.45
				c-0.23-0.09-0.49-0.09-0.77-0.03c-0.4,0.09-0.85,0.32-1.36,0.67l-0.28-0.4L305.7,331.2z"/>
			<path class="st0" d="M327.11,328.96l-4.54,4.39l0.67,1.77c0.23,0.59,0.47,1.02,0.73,1.29c0.35,0.36,0.75,0.49,1.21,0.37
				c0.27-0.06,0.76-0.39,1.48-0.99l0.34,0.35l-4.27,4.13l-0.34-0.35c0.39-0.52,0.59-1.07,0.58-1.67c-0.01-0.6-0.26-1.6-0.78-3
				l-5.32-14.7l0.18-0.17l14.83,6.06c1.41,0.57,2.38,0.85,2.91,0.83c0.4-0.01,0.82-0.19,1.24-0.54l0.34,0.35l-6.22,6.01l-0.34-0.35
				l0.26-0.25c0.5-0.48,0.78-0.89,0.85-1.23c0.04-0.24-0.03-0.45-0.21-0.64c-0.11-0.11-0.24-0.21-0.4-0.3
				c-0.07-0.04-0.39-0.19-0.97-0.44L327.11,328.96z M326.11,328.57l-6.19-2.57l2.31,6.33L326.11,328.57z"/>
		</g>
	</g>
	<g>
		<path class="st0" d="M84.74,97.04l6.54-6.51l0.34,0.35L91.3,91.2c-0.49,0.49-0.78,0.88-0.86,1.16c-0.08,0.29-0.07,0.56,0.03,0.82
			c0.1,0.26,0.51,0.75,1.23,1.47l6.17,6.21c1.13,1.13,1.96,1.8,2.5,2c0.54,0.2,1.12,0.22,1.76,0.07c0.63-0.15,1.25-0.52,1.85-1.11
			c0.69-0.68,1.12-1.42,1.29-2.21c0.18-0.79,0.11-1.57-0.19-2.35c-0.3-0.78-1.12-1.84-2.46-3.19l-5.14-5.17
			c-0.56-0.57-1.03-0.91-1.39-1.04c-0.36-0.12-0.68-0.14-0.95-0.06c-0.42,0.14-0.89,0.46-1.4,0.97l-0.34-0.35l4.38-4.36l0.34,0.35
			l-0.26,0.26c-0.35,0.35-0.58,0.72-0.67,1.1s-0.05,0.76,0.13,1.16c0.12,0.28,0.43,0.68,0.95,1.2l4.79,4.81
			c1.48,1.49,2.45,2.66,2.91,3.52c0.46,0.86,0.59,1.94,0.38,3.25c-0.21,1.31-0.97,2.62-2.28,3.93c-1.1,1.09-2.09,1.79-2.98,2.09
			c-1.21,0.41-2.3,0.48-3.25,0.19c-0.96-0.29-1.96-0.96-3.01-2.01l-6.17-6.21c-0.73-0.73-1.22-1.14-1.47-1.24
			c-0.26-0.1-0.54-0.1-0.84-0.01s-0.72,0.41-1.25,0.95L84.74,97.04z"/>
		<path class="st0" d="M113.35,71.97l13.52,4.22l-4.32-6.36c-0.6-0.89-1.14-1.4-1.6-1.54c-0.64-0.18-1.36,0.01-2.17,0.58l-0.27-0.4
			l4.89-3.32l0.27,0.4c-0.57,0.5-0.92,0.89-1.05,1.17s-0.15,0.59-0.08,0.96s0.35,0.9,0.82,1.6l8.36,12.31l-0.37,0.25l-18.36-5.52
			l6.38,9.4c0.58,0.85,1.16,1.29,1.75,1.33c0.59,0.03,1.14-0.12,1.64-0.46l0.35-0.24l0.27,0.4l-5.25,3.56l-0.27-0.4
			c0.81-0.56,1.26-1.11,1.36-1.66c0.1-0.54-0.12-1.21-0.65-1.99l-7.09-10.44l-0.58-0.18c-0.58-0.18-1.03-0.25-1.35-0.21
			c-0.32,0.04-0.72,0.21-1.18,0.5l-0.27-0.4L113.35,71.97z"/>
		<path class="st0" d="M152.54,51.12l0.19,0.45c-0.51,0.31-0.86,0.64-1.04,1.01c-0.26,0.51-0.49,1.71-0.71,3.6L150,63.66l1.72,3.97
			c0.37,0.85,0.64,1.35,0.82,1.52c0.18,0.17,0.43,0.27,0.76,0.32c0.33,0.04,0.71-0.03,1.15-0.22l0.92-0.4l0.19,0.45l-9.21,3.98
			l-0.19-0.45l0.86-0.37c0.48-0.21,0.83-0.46,1.04-0.75c0.16-0.2,0.24-0.47,0.24-0.8c0-0.23-0.17-0.76-0.53-1.58l-1.42-3.29
			l-6.9-5.36c-1.37-1.06-2.26-1.64-2.68-1.75c-0.42-0.11-0.9-0.06-1.42,0.16l-0.19-0.45l7.86-3.4l0.19,0.45l-0.35,0.15
			c-0.48,0.21-0.78,0.42-0.91,0.64c-0.13,0.22-0.16,0.41-0.1,0.56c0.13,0.29,0.76,0.88,1.92,1.77l5.32,4.15l0.81-6.23
			c0.21-1.53,0.23-2.49,0.06-2.88c-0.09-0.22-0.28-0.35-0.55-0.41c-0.36-0.08-0.92,0.01-1.67,0.29l-0.19-0.45L152.54,51.12z"/>
		<path class="st0" d="M176.9,43.95l1.52,5.76l-0.53,0.12c-0.59-1.4-1.48-2.42-2.66-3.07c-1.18-0.65-2.34-0.85-3.46-0.58
			c-0.87,0.21-1.51,0.6-1.91,1.19s-0.52,1.18-0.38,1.79c0.09,0.38,0.26,0.71,0.51,0.96c0.34,0.34,0.84,0.65,1.48,0.91
			c0.47,0.19,1.52,0.47,3.14,0.84c2.27,0.52,3.87,1.14,4.79,1.86c0.91,0.72,1.5,1.66,1.78,2.8c0.35,1.45,0.08,2.84-0.81,4.16
			c-0.88,1.32-2.2,2.18-3.94,2.6c-0.55,0.13-1.08,0.2-1.59,0.2c-0.51,0-1.17-0.06-1.98-0.19c-0.45-0.07-0.81-0.08-1.07-0.02
			c-0.22,0.05-0.44,0.19-0.64,0.42c-0.21,0.23-0.35,0.54-0.42,0.93l-0.47,0.11l-1.56-6.57l0.47-0.11c0.81,1.76,1.87,2.99,3.18,3.71
			s2.58,0.93,3.82,0.63c0.96-0.23,1.66-0.67,2.1-1.33c0.44-0.66,0.58-1.33,0.42-2.02c-0.1-0.41-0.3-0.78-0.61-1.12
			c-0.31-0.33-0.73-0.62-1.25-0.86s-1.42-0.5-2.68-0.79c-1.77-0.4-3.06-0.79-3.88-1.18s-1.5-0.87-2.03-1.45
			c-0.53-0.59-0.9-1.29-1.09-2.1c-0.33-1.39-0.1-2.69,0.69-3.9c0.79-1.22,1.95-2.01,3.5-2.38c0.56-0.13,1.13-0.2,1.69-0.18
			c0.43,0.01,0.96,0.08,1.6,0.22c0.64,0.14,1.08,0.18,1.31,0.13c0.22-0.05,0.38-0.16,0.48-0.33c0.1-0.17,0.14-0.52,0.12-1.07
			L176.9,43.95z"/>
		<path class="st0" d="M202.46,58.52l0.04,0.49l-9.31,0.82l-0.04-0.49l0.59-0.05c0.52-0.05,0.92-0.17,1.22-0.39
			c0.22-0.14,0.37-0.37,0.47-0.68c0.08-0.22,0.08-0.77,0-1.67l-1.03-11.71c-0.08-0.91-0.18-1.48-0.29-1.69
			c-0.12-0.22-0.33-0.4-0.64-0.55c-0.31-0.15-0.71-0.2-1.21-0.15l-0.59,0.05l-0.04-0.49l9.31-0.82l0.04,0.49l-0.59,0.05
			c-0.52,0.05-0.92,0.17-1.22,0.39c-0.22,0.14-0.38,0.37-0.48,0.68c-0.08,0.22-0.08,0.77,0,1.67l1.03,11.71
			c0.08,0.91,0.18,1.48,0.3,1.69c0.12,0.22,0.34,0.4,0.64,0.55c0.31,0.14,0.71,0.2,1.21,0.15L202.46,58.52z"/>
		<path class="st0" d="M226.18,41.09l-0.19,5.96l-0.54-0.03c-0.17-1.51-0.73-2.74-1.67-3.71s-2-1.48-3.16-1.54
			c-0.89-0.05-1.62,0.15-2.17,0.6c-0.55,0.45-0.84,0.99-0.88,1.61c-0.02,0.39,0.05,0.75,0.22,1.07c0.23,0.43,0.62,0.86,1.16,1.29
			c0.4,0.31,1.32,0.88,2.77,1.7c2.03,1.14,3.38,2.19,4.06,3.15c0.67,0.95,0.97,2.02,0.9,3.19c-0.08,1.49-0.74,2.74-1.96,3.75
			c-1.22,1.01-2.73,1.46-4.52,1.36c-0.56-0.03-1.09-0.12-1.58-0.26c-0.49-0.14-1.11-0.39-1.85-0.75c-0.41-0.2-0.75-0.31-1.03-0.32
			c-0.23-0.01-0.47,0.06-0.74,0.22c-0.26,0.16-0.49,0.42-0.66,0.77l-0.49-0.03l0.38-6.74l0.49,0.03c0.28,1.92,0.94,3.4,1.99,4.46
			c1.04,1.06,2.2,1.62,3.48,1.69c0.98,0.06,1.78-0.17,2.39-0.67c0.61-0.5,0.94-1.11,0.98-1.82c0.02-0.42-0.07-0.84-0.27-1.24
			c-0.2-0.41-0.52-0.8-0.96-1.18s-1.22-0.89-2.34-1.52c-1.58-0.89-2.71-1.63-3.39-2.24c-0.68-0.6-1.19-1.26-1.53-1.97
			c-0.34-0.71-0.49-1.49-0.44-2.32c0.08-1.42,0.67-2.6,1.77-3.55c1.1-0.94,2.44-1.37,4.03-1.28c0.58,0.03,1.14,0.13,1.67,0.31
			c0.41,0.13,0.9,0.35,1.47,0.67s0.98,0.48,1.22,0.5c0.23,0.01,0.41-0.05,0.55-0.18s0.28-0.46,0.43-0.99L226.18,41.09z"/>
		<path class="st0" d="M247.3,44.73l6.06,12.81l1.75-7.48c0.25-1.04,0.26-1.78,0.05-2.22c-0.29-0.59-0.93-0.99-1.9-1.2l0.11-0.48
			l5.75,1.35l-0.11,0.48c-0.76-0.08-1.28-0.07-1.57,0.02c-0.29,0.09-0.54,0.29-0.76,0.59s-0.43,0.87-0.62,1.69l-3.4,14.49l-0.44-0.1
			l-8.38-17.25l-2.59,11.06c-0.23,1-0.16,1.73,0.21,2.19c0.38,0.46,0.86,0.76,1.45,0.89l0.41,0.1l-0.11,0.47l-6.17-1.45l0.11-0.48
			c0.96,0.22,1.67,0.18,2.14-0.12c0.47-0.3,0.81-0.91,1.03-1.83l2.88-12.28l-0.26-0.55c-0.26-0.55-0.51-0.93-0.76-1.14
			c-0.25-0.21-0.64-0.39-1.16-0.53l0.11-0.48L247.3,44.73z"/>
		<path class="st0" d="M281.34,55.7c2.64,1.08,4.41,2.79,5.3,5.13c0.9,2.34,0.8,4.72-0.3,7.14c-0.93,2.07-2.36,3.61-4.28,4.64
			c-2.54,1.36-5.28,1.38-8.2,0.06c-2.93-1.32-4.75-3.34-5.45-6.05c-0.56-2.14-0.35-4.29,0.62-6.44c1.09-2.42,2.83-4.06,5.2-4.93
			C276.62,54.37,278.98,54.52,281.34,55.7z M281.14,56.54c-1.49-0.67-2.97-0.42-4.43,0.75c-1.2,0.96-2.32,2.62-3.38,4.95
			c-1.26,2.78-1.7,5.05-1.32,6.83c0.26,1.24,1,2.13,2.23,2.69c0.83,0.37,1.6,0.48,2.34,0.33c0.94-0.19,1.86-0.77,2.76-1.71
			c0.9-0.95,1.76-2.33,2.58-4.14c0.97-2.15,1.5-3.86,1.58-5.11c0.08-1.25-0.09-2.24-0.51-2.96
			C282.56,57.45,281.95,56.9,281.14,56.54z"/>
		<path class="st0" d="M317.47,77.75l-0.28,0.4c-0.59-0.29-1.27-0.34-2.02-0.16c-0.55,0.15-1.6,0.67-3.14,1.57l-12.92,7.58
			l-0.36-0.25l3.22-15.14c0.39-1.82,0.57-2.93,0.54-3.32c-0.03-0.39-0.31-0.82-0.83-1.28l0.28-0.4l6.99,4.96l-0.28,0.4l-0.24-0.17
			c-0.63-0.45-1.12-0.67-1.46-0.68c-0.24-0.01-0.44,0.09-0.58,0.3c-0.09,0.13-0.17,0.3-0.24,0.52s-0.21,0.83-0.42,1.83l-2.04,9.46
			l7.47-4.42c0.9-0.54,1.48-0.91,1.75-1.12c0.27-0.21,0.47-0.41,0.6-0.59c0.15-0.21,0.23-0.45,0.23-0.69c0-0.25-0.08-0.49-0.24-0.73
			c-0.22-0.34-0.59-0.69-1.1-1.05l0.28-0.4L317.47,77.75z"/>
		<path class="st0" d="M323.36,100.53l-4.48-4.45l-1.76,0.71c-0.58,0.24-1.01,0.49-1.27,0.76c-0.35,0.36-0.47,0.76-0.35,1.21
			c0.07,0.27,0.41,0.75,1.02,1.46l-0.34,0.35l-4.22-4.19l0.34-0.35c0.52,0.38,1.08,0.57,1.68,0.55c0.6-0.02,1.59-0.3,2.98-0.84
			l14.58-5.62l0.18,0.18l-5.75,14.95c-0.54,1.42-0.8,2.4-0.77,2.93c0.02,0.4,0.21,0.81,0.56,1.23l-0.34,0.35l-6.14-6.09l0.34-0.35
			l0.25,0.25c0.49,0.49,0.91,0.76,1.24,0.82c0.24,0.04,0.45-0.04,0.63-0.23c0.11-0.11,0.21-0.25,0.29-0.4
			c0.04-0.07,0.18-0.4,0.42-0.98L323.36,100.53z M323.73,99.53l2.44-6.25l-6.28,2.44L323.73,99.53z"/>
	</g>
	<path class="st0" d="M96.01,248.12c-1.4,2.05-3.05,4.01-4.91,5.87c-7.62,7.61-18.91,13.41-32.08,15.6
		c-13.75,2.28-26.84,0.19-36.66-5.02c-3.07-1.62-5.83-3.56-8.18-5.74c-2.6-11.03-4.3-22.41-5-34.04c1.62-2.81,3.7-5.5,6.17-8
		c7.62-7.7,18.99-13.57,32.27-15.78c13.74-2.28,26.82-0.19,36.64,5.01c2.32,1.22,4.45,2.62,6.37,4.17
		c-0.02,0.72-0.03,1.44-0.03,2.17C90.6,224.8,92.49,236.81,96.01,248.12z M50.69,237.65H50c-0.43,0.88-0.78,1.45-1.05,1.72
		c-0.27,0.27-0.61,0.47-1.02,0.58c-0.41,0.11-1.3,0.17-2.68,0.17h-5.58c4.32-4.2,7.12-7.48,8.4-9.83c0.94-1.74,1.41-3.45,1.41-5.14
		c0-0.93-0.3-1.92-0.91-2.98c-0.61-1.06-1.45-1.89-2.53-2.5s-2.27-0.91-3.58-0.91c-1.83,0-3.44,0.58-4.84,1.75
		c-1.4,1.17-2.44,2.97-3.12,5.41l0.7,0.25c1.08-1.96,2.6-2.93,4.55-2.93c1.19,0,2.2,0.44,3.03,1.32c0.83,0.88,1.24,1.99,1.24,3.32
		c0,1.83-0.5,3.7-1.5,5.62s-3.82,5.65-8.48,11.2v0.42h15.2L50.69,237.65z M69.39,224.42c-0.61-1.73-1.56-3.1-2.87-4.12
		c-1.3-1.02-2.7-1.53-4.2-1.53c-1.47,0-2.87,0.52-4.19,1.55c-1.32,1.03-2.3,2.52-2.95,4.46c-0.79,2.35-1.18,4.93-1.18,7.73
		c0,2.07,0.27,4.08,0.82,6.02c0.42,1.44,0.91,2.58,1.47,3.45c0.77,1.18,1.66,2.09,2.67,2.72s2.13,0.95,3.37,0.95
		c1.09,0,2.1-0.26,3.03-0.77c0.93-0.51,1.75-1.21,2.49-2.08c0.73-0.88,1.31-2,1.74-3.37c0.72-2.23,1.09-4.64,1.09-7.22
		C70.67,229.39,70.24,226.79,69.39,224.42z M64.72,240.36c-0.08,1.49-0.38,2.58-0.91,3.29c-0.32,0.41-0.79,0.61-1.43,0.61
		c-0.58,0-1.05-0.15-1.41-0.46s-0.63-0.91-0.82-1.81c-0.25-1.24-0.38-3.69-0.38-7.35c0-6.72,0.08-10.63,0.25-11.76
		c0.17-1.12,0.48-1.91,0.95-2.35c0.32-0.3,0.75-0.46,1.29-0.46c0.71,0,1.22,0.2,1.54,0.61c0.48,0.62,0.79,1.82,0.91,3.58
		c0.05,0.75,0.08,3.38,0.08,7.9L64.72,240.36z"/>
	<path class="st0" d="M332.12,212.36c0-0.73-0.01-1.45-0.03-2.17c1.92-1.55,4.05-2.95,6.37-4.17c9.82-5.2,22.9-7.29,36.64-5.01
		c13.28,2.21,24.65,8.08,32.27,15.78c2.47,2.5,4.55,5.19,6.17,8c-0.7,11.63-2.4,23.01-5,34.04c-2.35,2.18-5.11,4.12-8.18,5.74
		c-9.82,5.21-22.91,7.3-36.66,5.02c-13.17-2.19-24.46-7.99-32.08-15.6c-1.86-1.86-3.51-3.82-4.91-5.87
		C330.23,236.81,332.12,224.8,332.12,212.36z M368.22,237.65h-0.69c-0.43,0.88-0.78,1.45-1.05,1.72c-0.27,0.27-0.61,0.47-1.02,0.58
		s-1.3,0.17-2.67,0.17h-5.58c4.32-4.2,7.12-7.48,8.4-9.83c0.94-1.74,1.41-3.45,1.41-5.14c0-0.93-0.3-1.92-0.91-2.98
		c-0.61-1.06-1.45-1.89-2.53-2.5s-2.27-0.91-3.58-0.91c-1.83,0-3.44,0.58-4.84,1.75c-1.4,1.17-2.44,2.97-3.12,5.41l0.7,0.25
		c1.08-1.96,2.6-2.93,4.55-2.93c1.19,0,2.2,0.44,3.03,1.32c0.83,0.88,1.24,1.99,1.24,3.32c0,1.83-0.5,3.7-1.5,5.62
		c-1,1.92-3.82,5.65-8.48,11.2v0.42h15.2L368.22,237.65z M371.44,232.32c0.69-0.01,1.2-0.02,1.54-0.02c3.4,0,6.22,0.7,8.45,2.09
		s3.35,3.21,3.35,5.45c0,1.07-0.37,1.98-1.09,2.74c-0.73,0.76-1.62,1.14-2.66,1.14c-0.5,0-0.94-0.08-1.33-0.23
		c-0.56-0.2-1.23-0.57-2-1.1c-1.23-0.86-2.1-1.4-2.61-1.6s-1.01-0.3-1.5-0.3c-0.55,0-1.03,0.21-1.44,0.63
		c-0.41,0.42-0.62,0.9-0.62,1.45c0,0.71,0.39,1.35,1.18,1.9c1.13,0.79,2.75,1.18,4.86,1.18c1.95,0,3.75-0.41,5.39-1.23
		c1.64-0.82,2.91-1.99,3.81-3.5c0.9-1.52,1.35-3.07,1.35-4.66c0-2.48-0.97-4.54-2.91-6.21c-2.36-2.02-5.73-3.11-10.11-3.27
		l0.97-2.57h10.17l1.92-4.91h-12.09L371.44,232.32z"/>
	<g>
		<path class="st0" d="M211.36,94.8c-64.27,0-116.56,52.29-116.56,116.56c0,64.27,52.29,116.56,116.56,116.56
			c64.27,0,116.56-52.29,116.56-116.56C327.92,147.09,275.63,94.8,211.36,94.8z M270.36,127.67l1.51-4.64l1.51,4.64h4.88l-3.95,2.87
			l1.51,4.64l-3.95-2.87l-3.95,2.87l1.51-4.64l-3.95-2.87H270.36z M240.62,114.73l2.09-6.44l2.09,6.44h6.77l-5.48,3.98l2.09,6.44
			l-5.48-3.98l-5.48,3.98l2.09-6.44l-5.48-3.98H240.62z M208.68,105.49l2.68-8.24l2.68,8.24h8.66l-7.01,5.09l2.68,8.24l-7.01-5.09
			l-7.01,5.09l2.68-8.24l-7.01-5.09H208.68z M177.91,114.73l2.09-6.44l2.09,6.44h6.77l-5.48,3.98l2.09,6.44l-5.48-3.98l-5.48,3.98
			l2.09-6.44l-5.48-3.98H177.91z M149.34,127.67l1.51-4.64l1.51,4.64h4.88l-3.95,2.87l1.51,4.64l-3.95-2.87l-3.95,2.87l1.51-4.64
			l-3.95-2.87H149.34z M295.07,221.97c-3.5,13.72-10.88,33.03-26.84,51.34c-21.23,24.35-46.11,33.71-56.87,37.07
			c-10.76-3.36-35.64-12.72-56.87-37.07c-15.96-18.31-23.34-37.62-26.84-51.34c-1.84-7.21-2.73-14.63-2.73-22.08v-44.01l86.44-34.07
			l86.44,34.07v44.01C297.8,207.34,296.91,214.76,295.07,221.97z"/>
		<path class="st0" d="M131.92,160.65v39.24c0,6.97,0.85,13.81,2.51,20.35c3.19,12.52,10.18,31.09,25.34,48.47
			c17.2,19.73,37.18,29.51,51.59,34.32c14.41-4.8,34.39-14.59,51.59-34.32c15.16-17.39,22.14-35.96,25.34-48.47
			c1.67-6.53,2.51-13.38,2.51-20.35v-39.24l-79.44-31.31L131.92,160.65z M201.69,177.42c0.67-0.14,2.55,0.08,2.55,0.66v26.65
			c-7.79-1.82-15.94-1.94-23.95-1.33c-0.12-0.64,0.9-0.61,1.42-0.74c6.23-1.51,13.71-1.37,19.97-0.14V177.42z M198.12,172.58
			l2.55,0.44v28.2c-7.47-0.77-14.7-0.66-21.91,1.32c-0.28-1.26,0.39-0.71,1.11-1c1.45-0.58,7.13-2.53,8.31-2.53h9.94V172.58z
			 M173.16,173.9c7.29-3.98,15.11-6.99,23.95-5.73v29.96h-8.41c-1.39,0-7.32,1.83-8.91,2.43c-2.37,0.91-4.39,2.22-6.63,3.3V173.9z
			 M148.19,168.17c8.5-1.04,17.52,1.46,23.95,6.39v29.3c-2.69-1.05-5.06-2.61-7.81-3.6c-1.61-0.58-6.27-2.13-7.73-2.13h-8.41V168.17
			z M144.62,173.24c0-0.58,1.88-0.81,2.55-0.66v26.43h9.43c1.93,0,8.46,2.09,9.94,3.52c-7.16-1.87-14.5-2.17-21.91-1.32V173.24z
			 M141.05,177.42h2.55v25.11c6.26-1.23,13.74-1.37,19.97,0.14c0.53,0.13,1.54,0.1,1.42,0.74c-8.15-0.89-15.88,0-23.95,0.89V177.42z
			 M211.36,300.81c-13.66-4.64-33.2-14.2-50.01-33.48c-14.88-17.07-21.75-35.31-24.88-47.61c-0.19-0.76-0.38-1.52-0.54-2.28h59.53
			c8.78,0,15.9,7.12,15.9,15.9V300.81z M214.48,220.61l-3.12-2.27l-3.12,2.27l1.19-3.67l-3.12-2.27h3.86l1.19-3.67l1.19,3.67h3.86
			l-3.12,2.27L214.48,220.61z M256.1,262.74c-0.89,2.51-2.97,4.65-5.01,6.26c0.96,0.27,2.05-0.2,2.96-0.49
			c0.3-0.1,0.69-0.16,0.48,0.25c-0.12,0.24-2.98,2.22-3.47,2.52c-2.59,1.61-5.7,3.07-8.72,3.58c-0.1-0.4,0.17-0.46,0.34-0.69
			c0.83-1.08,1.92-2.01,2.74-3.24c1.31-1.97,2.56-4.54,2.55-6.88c-0.27,0.33-1.59,1.43-1.96,1.15c1.11-1.84,1.58-3.82,1.38-5.98
			c-0.85,0.62-0.96,1.47-1.86,2.17c-3.2,2.47-5.98-1.34-5.49-4.57c0.32-2.09,2.33-3.5,3.55-4.96c0.15-0.18,0.6-0.46,0.23-0.69
			c-5.64,2.4-9.12,5.77-8.63,12.31c0.06,0.77,1.09,2.28-0.33,2.19c-1.17-0.08-2.63-2.59-3.12-2.3c-0.03,4.33,1.74,8.17,5.31,10.68
			c0.52,0.37,1.29,0.45,1.6,1.05c-5.42-0.32-10.66-2.14-14.03-6.55c0.43-0.59,0.39-0.13,0.71-0.03c0.98,0.33,1.93,0.71,2.97,0.83
			c-5.82-5.33-5.8-13.49-1.04-19.55c0.52,0.21,0.26,4.45,2.12,5.01c1.44,0.44,2.15-1.06,2.55-2.19c0.97-2.74,0.22-5.47,0.54-8.21
			c0.26-2.2,1.55-4.34,3.08-5.89c0.43-0.01,0.27,2.59,1.43,2.94c1.95,0.61,2.83-2.53,2.85-3.98c0.05-2.89-2.46-5.3-3.7-7.7
			c3.67,0.87,7.17,3.18,9.76,5.88c2.06,2.14,4.02,5.22,4.28,8.26c0.14,1.67-0.93,8.5,1.3,9.07c1.31,0.33,1.78-3.05,2.02-3.89
			c0.07-0.22,0.04-0.52,0.34-0.46C255.69,253.19,257.85,257.78,256.1,262.74z M211.36,131.6l77.34,30.48v37.81
			c0,5.23-0.49,10.38-1.46,15.38h-59.98c-8.78,0-15.9-7.11-15.9-15.9V131.6z"/>
	</g>
	<g>
		<path class="st0" d="M226.55,175.72c-0.91,1.23,0.28,1.23,0.78,1.52c2.99,1.78,23.21,10.83,25.52,10.93
			c4.7,0.2,13.35-6.94,18.52-7.36l-18.27-5.14l18.53,3.69c1.28,1.78,1.32,5.2,1.04,6.08c-0.1,0.31-0.57,0.58-0.61,0.89
			c-0.05,0.39,0.43,0.76,0.46,1.28c0.05,0.91-0.43,2.96-0.48,4.05c-0.06,1.17,0.03,2.35,0,3.52c0.81-0.75,1.2-0.75,2.01,0
			l-0.51-15.34c0.18-0.97,4.39-2.04,5.33-2.61c0.65-0.39,1,0.35,0.78-1.52l-26.79-10.94L226.55,175.72z"/>
		<path class="st0" d="M237.06,182.29v12.8c0,1.48,2.64,3.96,3.66,4.66c6.23,4.29,19.43,4.3,25.5-0.49
			c0.57-0.45,2.93-3.05,2.93-3.44v-13.53c-4.23,1.02-12.04,6.84-15.86,7.1C250.1,189.61,240.85,183.14,237.06,182.29z"/>
	</g>
	<g>
		<path class="st0" d="M158.1,225.75c-0.01,0.08-0.07,0.12-0.13,0.15c-1.78,1.04-2.32,3.31-2.03,5.24c0.51,3.39,2.64,6.31,4.83,8.81
			c1.1,1.26,2.77,3.11,4.28,3.82c0.59,0.28,1.28,0.47,1.92,0.59c0.02,0.08-0.17,0.08-0.22,0.08c-0.58,0.01-1.43-0.08-2-0.19
			c-0.13-0.03-0.81-0.26-0.86-0.17c0.04,0.22,0.15,0.42,0.26,0.62c1.04,1.98,2.83,4.2,4.98,4.98c0.39,0.14,0.81,0.22,1.2,0.36
			c-0.08,0.04-0.22,0.03-0.31,0.03c-0.52-0.01-1.12-0.09-1.62-0.21c-0.13-0.03-0.69-0.28-0.77-0.2c-0.06,0.22,0.15,0.4,0.29,0.56
			c0.97,1.1,2.51,2.11,3.93,2.5c0.08,0.02,0.46,0.07,0.48,0.08c0,0,0.04,0.09,0,0.09c-0.44-0.06-0.91,0-1.35-0.06
			c-0.13-0.02-0.81-0.26-0.75,0.03c0.04,0.17,0.59,1.04,0.72,1.26c2.17,3.47,5.3,7.27,9.13,8.91c0.6,0.26,1.38,0.49,1.96,0.65
			c1.16,0.31,2.27,0.52,3.49,0.47l-1.14,0.44c-1.66,0.34-3.31,0.22-4.86-0.47c-0.21-0.09-0.67-0.39-0.83-0.43
			c-0.18-0.04-0.23,0.09-0.15,0.24c0.08,0.14,0.72,0.78,0.88,0.93c1.21,1.17,2.67,1.86,4.26,2.28l0.78,0.18l-0.79,0.18
			c-0.48,0.11-1.3-0.05-1.75-0.25c-0.1-0.04-0.1-0.17-0.23-0.11c-0.21,0.09,0,0.28,0.09,0.39c1.45,1.81,4.73,2.14,6.86,1.78
			c0.53-0.09,1.03-0.29,1.57-0.32c-0.09,0.23-0.23,0.39-0.32,0.62c-0.18,0.43-0.34,1.21-0.27,1.67c0.03,0.19,0.12,0.24,0.23,0.07
			c0.15-0.24,0.24-0.74,0.4-1.03c0.1-0.2,0.31-0.49,0.45-0.67c0.21-0.25,0.36-0.18,0.2-0.55c-4.22-6.89-8.71-13.61-13.54-20.09
			c-4.52-6.07-9.29-12.01-14.85-17.16l-0.01-0.1c0.41,0.31,0.81,0.67,1.2,1.01c3.26,2.91,6.21,6.21,9,9.57
			c9.2,11.11,17.05,23.22,24.32,35.62c0.71,1.21,1.38,2.48,2.11,3.66c0.21,0.34,0.48,0.51,0.82,0.71l0.3-0.07
			c0-0.25-0.16-0.38-0.25-0.56c-1.07-2.11-2.4-4.2-3.6-6.25c-1.25-2.12-2.48-4.31-3.8-6.37c-0.06-0.09-0.35-0.41-0.35-0.48
			c-0.02-0.15,0.99-0.35,1.14-0.38c0.61-0.1,1.19-0.02,1.78,0.01c0.12,0.01,0.72,0.05,0.76-0.02c-0.01-0.06-0.02-0.11-0.06-0.16
			c-0.13-0.16-1.62-0.6-1.9-0.65c-0.37-0.07-0.76-0.13-1.11,0c-0.04-0.09,0-0.07,0.03-0.11c0.13-0.14,0.47-0.32,0.65-0.47
			c0.16-0.13,0.38-0.36,0.52-0.51c0.07-0.08,0.52-0.61,0.53-0.66c0.02-0.06,0-0.12-0.02-0.18c-0.83,0.3-1.66,1.02-2.59,0.89
			c-0.12-0.8-0.08-1.62,0.05-2.42c0.17-1.05,0.49-2.01,0.82-3c0.05-0.16,0.23-0.6,0.24-0.73c0-0.05-0.05-0.16-0.06-0.16
			c-0.18-0.08-1.03,1.05-1.2,1.21l-0.78,1.28c-0.07-0.3-0.23-0.56-0.33-0.85c-0.05-0.14-0.05-0.29-0.1-0.43
			c-3.31-9.33-9.91-17.33-16.82-24.24c-3.06-3.06-6.3-6.1-9.8-8.67c-1.2-0.88-3.51-2.6-4.96-2.72c-0.07-0.01-0.15,0.01-0.2-0.07
			L158.1,225.75z"/>
	</g>
</g>
<g>
	<g>
		<path class="st0" d="M528.63,210.69c-8.1,0-15.14-1.42-21.12-4.27c-5.98-2.84-10.62-6.85-13.93-12.03
			c-3.3-5.17-4.95-11.25-4.95-18.23v-59.76h25.17v57.64c0,2.87,0.64,5.41,1.93,7.63c1.29,2.22,3.03,3.98,5.23,5.27
			c2.2,1.29,4.76,1.93,7.67,1.93c2.91,0,5.47-0.64,7.7-1.93c2.22-1.29,3.97-3.03,5.23-5.23c1.27-2.2,1.9-4.76,1.9-7.66v-57.64h25.17
			v59.76c0,6.98-1.65,13.05-4.95,18.23c-3.3,5.17-7.96,9.18-13.96,12.03C543.72,209.27,536.69,210.69,528.63,210.69z"/>
		<path class="st0" d="M604.4,173.43v35.83h-24.92v-66.67h24.36l0.06,18.07h-2.68c1.95-5.61,4.82-10.25,8.6-13.93
			c3.78-3.68,8.97-5.51,15.58-5.51c4.9,0,9.04,1.07,12.4,3.21c3.37,2.14,5.92,5.15,7.66,9.04c1.75,3.88,2.62,8.44,2.62,13.68v42.12
			H623.1v-36.64c0-3.32-0.81-5.9-2.43-7.73c-1.62-1.83-3.93-2.74-6.92-2.74c-1.95,0-3.64,0.42-5.05,1.25
			c-1.41,0.83-2.48,2.09-3.21,3.77C604.77,168.85,604.4,170.93,604.4,173.43z"/>
		<path class="st0" d="M671.57,137.6c-3.78,0-6.9-1.12-9.35-3.36c-2.45-2.24-3.68-5.07-3.68-8.47c0-3.45,1.22-6.28,3.68-8.51
			c2.45-2.22,5.57-3.33,9.35-3.33c3.78,0,6.91,1.11,9.38,3.33c2.47,2.22,3.71,5.06,3.71,8.51c0,3.41-1.24,6.23-3.71,8.47
			C678.48,136.48,675.35,137.6,671.57,137.6z M659.24,209.26v-66.67h24.92v66.67H659.24z"/>
		<path class="st0" d="M726.41,210.81c-6.48,0-12.19-0.95-17.14-2.83c-4.94-1.89-8.89-4.56-11.84-8.01
			c-2.95-3.45-4.67-7.48-5.17-12.09l24.24-0.75c0.41,2.12,1.44,3.82,3.08,5.11c1.64,1.29,3.89,1.93,6.76,1.93
			c2.45,0,4.35-0.38,5.7-1.15c1.35-0.77,2.02-1.8,2.02-3.08c0-1.16-0.61-2.11-1.84-2.83c-1.23-0.73-3.11-1.3-5.64-1.71l-12.34-2.06
			c-6.69-1.12-11.78-3.35-15.27-6.7c-3.49-3.34-5.23-7.7-5.23-13.05c0-4.61,1.25-8.57,3.74-11.87c2.49-3.3,6.1-5.85,10.81-7.63
			c4.71-1.79,10.35-2.68,16.92-2.68c6.52,0,12.15,0.91,16.89,2.74c4.74,1.83,8.43,4.41,11.09,7.76c2.66,3.34,4.11,7.34,4.36,12
			l-22.56,0.69c-0.12-1.99-1.03-3.6-2.71-4.83c-1.68-1.22-3.75-1.84-6.2-1.84c-2.33,0-4.17,0.4-5.51,1.18
			c-1.35,0.79-2.03,1.83-2.03,3.12c0,1.04,0.52,1.94,1.56,2.71c1.04,0.77,2.6,1.32,4.67,1.65l14.14,2.43
			c6.98,1.16,12.14,3.21,15.49,6.14c3.34,2.93,5.02,6.89,5.02,11.87c0,4.74-1.38,8.89-4.14,12.46c-2.76,3.57-6.63,6.36-11.59,8.35
			C738.74,209.82,732.97,210.81,726.41,210.81z"/>
		<path class="st0" d="M768.47,234.87l1.18-18.69l8.47,0.19c1.83,0.17,3.27,0.07,4.33-0.28c1.06-0.35,1.87-1,2.43-1.93
			s0.97-2.15,1.21-3.65l0.12-1.25l-25.36-66.67h25.98l8.47,28.79c1.33,4.53,2.53,9.08,3.61,13.65c1.08,4.57,2.18,9.24,3.3,14.02
			h-6.54c1.08-4.78,2.19-9.46,3.33-14.05c1.14-4.59,2.42-9.13,3.83-13.62l8.85-28.79h25.74l-27.98,74.59
			c-1.54,4.15-3.36,7.58-5.48,10.28c-2.12,2.7-4.7,4.7-7.76,6.01s-6.76,1.96-11.12,1.96c-2.78,0-5.62-0.05-8.51-0.16
			C773.71,235.17,771,235.03,768.47,234.87z"/>
		<path class="st0" d="M873.09,210.81c-6.48,0-12.19-0.95-17.14-2.83c-4.94-1.89-8.89-4.56-11.84-8.01
			c-2.95-3.45-4.67-7.48-5.17-12.09l24.24-0.75c0.41,2.12,1.44,3.82,3.08,5.11c1.64,1.29,3.89,1.93,6.76,1.93
			c2.45,0,4.35-0.38,5.7-1.15c1.35-0.77,2.02-1.8,2.02-3.08c0-1.16-0.61-2.11-1.84-2.83c-1.23-0.73-3.11-1.3-5.64-1.71l-12.34-2.06
			c-6.69-1.12-11.78-3.35-15.27-6.7c-3.49-3.34-5.23-7.7-5.23-13.05c0-4.61,1.25-8.57,3.74-11.87c2.49-3.3,6.1-5.85,10.81-7.63
			c4.71-1.79,10.35-2.68,16.92-2.68c6.52,0,12.15,0.91,16.89,2.74c4.74,1.83,8.43,4.41,11.09,7.76c2.66,3.34,4.11,7.34,4.36,12
			l-22.56,0.69c-0.12-1.99-1.03-3.6-2.71-4.83c-1.68-1.22-3.75-1.84-6.2-1.84c-2.33,0-4.17,0.4-5.51,1.18
			c-1.35,0.79-2.03,1.83-2.03,3.12c0,1.04,0.52,1.94,1.56,2.71c1.04,0.77,2.6,1.32,4.67,1.65l14.14,2.43
			c6.98,1.16,12.14,3.21,15.49,6.14c3.34,2.93,5.02,6.89,5.02,11.87c0,4.74-1.38,8.89-4.14,12.46c-2.76,3.57-6.63,6.36-11.59,8.35
			C885.42,209.82,879.66,210.81,873.09,210.81z"/>
		<path class="st0" d="M937.65,209.26v-92.85h26.61l22.49,36.45c1.21,1.91,2.59,4.28,4.14,7.1c1.56,2.83,3.16,5.87,4.8,9.13
			c1.64,3.26,3.21,6.53,4.7,9.81l-2.87,5.61c-0.21-3.37-0.4-7.21-0.56-11.53c-0.17-4.32-0.3-8.52-0.41-12.59
			c-0.1-4.07-0.16-7.39-0.16-9.97v-34.02h25.92v92.85h-26.67l-21-33.9c-1.5-2.45-3.16-5.29-4.99-8.51
			c-1.83-3.22-3.74-6.76-5.73-10.62s-4.05-7.91-6.17-12.15l4.55-1.18c0.33,4.36,0.59,8.65,0.78,12.87
			c0.19,4.22,0.31,8.03,0.37,11.43c0.06,3.41,0.09,6.13,0.09,8.16v33.9H937.65z"/>
		<path class="st0" d="M1066.51,210.69c-7.19,0-13.48-1.42-18.88-4.27c-5.4-2.84-9.59-6.87-12.56-12.09
			c-2.97-5.21-4.46-11.33-4.46-18.35c0-7.06,1.49-13.19,4.46-18.38c2.97-5.19,7.16-9.22,12.56-12.09c5.4-2.87,11.69-4.3,18.88-4.3
			c7.23,0,13.53,1.43,18.91,4.3s9.55,6.9,12.53,12.09c2.97,5.19,4.46,11.32,4.46,18.38c0,7.02-1.49,13.14-4.46,18.35
			c-2.97,5.21-7.15,9.24-12.53,12.09C1080.04,209.27,1073.74,210.69,1066.51,210.69z M1066.51,191.44c2.03,0,3.85-0.59,5.45-1.78
			c1.6-1.18,2.87-2.93,3.8-5.23s1.4-5.14,1.4-8.51c0-3.37-0.47-6.19-1.4-8.47c-0.93-2.28-2.2-4.01-3.8-5.17
			c-1.6-1.16-3.42-1.75-5.45-1.75c-1.99,0-3.8,0.58-5.42,1.75c-1.62,1.16-2.9,2.89-3.83,5.17c-0.93,2.29-1.4,5.11-1.4,8.47
			c0,3.36,0.47,6.2,1.4,8.51s2.21,4.05,3.83,5.23S1064.52,191.44,1066.51,191.44z"/>
		<path class="st0" d="M1127.2,209.26l-23.8-66.67h25.98l8.23,28.79c1.33,4.53,2.56,9.09,3.71,13.68c1.14,4.59,2.27,9.25,3.4,13.99
			h-5.48c1.12-4.74,2.23-9.4,3.33-13.99c1.1-4.59,2.27-9.15,3.52-13.68l8.1-28.79h25.74l-23.87,66.67H1127.2z"/>
		<path class="st0" d="M1203.1,210.44c-4.4,0-8.3-0.72-11.68-2.15s-6.03-3.59-7.94-6.48c-1.91-2.89-2.87-6.55-2.87-11
			c0-3.7,0.64-6.84,1.93-9.44c1.29-2.6,3.08-4.73,5.39-6.39c2.31-1.66,4.99-2.93,8.07-3.8c3.07-0.87,6.4-1.43,9.97-1.68
			c3.86-0.25,6.97-0.59,9.32-1.03c2.35-0.44,4.04-1.03,5.08-1.78c1.04-0.75,1.56-1.74,1.56-2.99v-0.25c0-1-0.31-1.87-0.93-2.62
			c-0.62-0.75-1.5-1.32-2.62-1.71c-1.12-0.39-2.45-0.59-3.99-0.59c-1.62,0-3.03,0.23-4.24,0.69c-1.21,0.46-2.16,1.13-2.87,2.02
			c-0.71,0.89-1.16,2-1.37,3.33l-22.74-0.5c0.46-4.74,1.94-8.81,4.46-12.21c2.51-3.41,6.08-6.03,10.69-7.88
			c4.61-1.85,10.26-2.77,16.95-2.77c5.03,0,9.49,0.53,13.4,1.59c3.9,1.06,7.21,2.6,9.91,4.61c2.7,2.02,4.74,4.46,6.11,7.32
			c1.37,2.87,2.06,6.11,2.06,9.72v44.8h-24.12v-9.35h-0.31c-1.46,2.62-3.13,4.69-5.02,6.23c-1.89,1.54-4.01,2.64-6.36,3.3
			C1208.57,210.11,1205.97,210.44,1203.1,210.44z M1211.2,194.86c1.83,0,3.58-0.35,5.27-1.06c1.68-0.71,3.05-1.74,4.11-3.12
			c1.06-1.37,1.59-3.05,1.59-5.05v-5.36c-0.62,0.25-1.29,0.48-1.99,0.69c-0.71,0.21-1.45,0.41-2.24,0.59s-1.66,0.37-2.62,0.56
			c-0.96,0.19-1.99,0.38-3.12,0.59c-1.75,0.29-3.23,0.74-4.46,1.34c-1.23,0.6-2.16,1.35-2.8,2.24c-0.64,0.89-0.97,1.9-0.97,3.02
			c0,1.16,0.31,2.16,0.93,2.99c0.62,0.83,1.47,1.46,2.56,1.9C1208.54,194.64,1209.79,194.86,1211.2,194.86z"/>
	</g>
	<g>
		<path class="st0" d="M503.37,300.49c-2.85,0-5.27-0.42-7.27-1.25c-2-0.83-3.52-2.07-4.58-3.71c-1.05-1.64-1.58-3.65-1.58-6.04
			h8.19c0.04,0.87,0.28,1.6,0.71,2.21s1.04,1.08,1.81,1.4c0.78,0.33,1.69,0.49,2.75,0.49c0.92,0,1.72-0.12,2.39-0.35
			c0.67-0.23,1.19-0.55,1.55-0.96s0.54-0.88,0.54-1.41c0-0.5-0.17-0.94-0.52-1.31c-0.35-0.37-0.89-0.69-1.62-0.97
			c-0.73-0.28-1.69-0.54-2.86-0.77l-3.12-0.61c-2.95-0.57-5.22-1.62-6.81-3.14c-1.59-1.52-2.39-3.46-2.39-5.8
			c0-1.98,0.54-3.72,1.61-5.2c1.08-1.49,2.57-2.65,4.47-3.49s4.12-1.26,6.63-1.26c2.58,0,4.81,0.42,6.67,1.25
			c1.86,0.83,3.31,2.02,4.33,3.56s1.57,3.39,1.62,5.54h-8.02c-0.1-1.08-0.54-1.92-1.32-2.53c-0.78-0.61-1.83-0.92-3.14-0.92
			c-0.82,0-1.54,0.11-2.16,0.33c-0.61,0.22-1.09,0.53-1.42,0.92c-0.33,0.39-0.5,0.84-0.5,1.36c0,0.49,0.16,0.91,0.47,1.27
			c0.31,0.36,0.81,0.67,1.48,0.93c0.67,0.27,1.54,0.5,2.6,0.69l2.51,0.48c1.77,0.33,3.3,0.77,4.58,1.31
			c1.28,0.54,2.33,1.18,3.14,1.94c0.82,0.75,1.42,1.62,1.81,2.61c0.39,0.98,0.59,2.09,0.59,3.32c0,2.15-0.52,3.98-1.55,5.49
			c-1.03,1.51-2.53,2.66-4.49,3.45C508.52,300.09,506.15,300.49,503.37,300.49z"/>
		<path class="st0" d="M523.85,275.92c-1.27,0-2.32-0.38-3.14-1.13c-0.82-0.75-1.24-1.7-1.24-2.85c0-1.16,0.41-2.11,1.24-2.86
			c0.82-0.75,1.87-1.12,3.14-1.12c1.27,0,2.32,0.37,3.15,1.12c0.83,0.75,1.25,1.7,1.25,2.86c0,1.15-0.42,2.09-1.25,2.85
			C526.18,275.54,525.13,275.92,523.85,275.92z M519.71,300.01V277.6h8.38v22.41H519.71z"/>
		<path class="st0" d="M542.29,300.53c-2.18,0-4.1-0.32-5.76-0.95c-1.66-0.63-2.99-1.53-3.98-2.69c-0.99-1.16-1.57-2.51-1.74-4.06
			l8.15-0.25c0.14,0.71,0.48,1.29,1.04,1.72s1.31,0.65,2.27,0.65c0.82,0,1.46-0.13,1.92-0.39c0.45-0.26,0.68-0.6,0.68-1.04
			c0-0.39-0.21-0.71-0.62-0.95s-1.04-0.44-1.9-0.58l-4.15-0.69c-2.25-0.38-3.96-1.13-5.13-2.25s-1.76-2.59-1.76-4.39
			c0-1.55,0.42-2.88,1.26-3.99c0.84-1.11,2.05-1.96,3.63-2.57c1.58-0.6,3.48-0.9,5.69-0.9c2.19,0,4.08,0.31,5.68,0.92
			s2.83,1.48,3.73,2.61s1.38,2.47,1.47,4.03l-7.58,0.23c-0.04-0.67-0.34-1.21-0.91-1.62c-0.57-0.41-1.26-0.62-2.08-0.62
			c-0.78,0-1.4,0.13-1.85,0.4c-0.45,0.27-0.68,0.62-0.68,1.05c0,0.35,0.17,0.65,0.52,0.91c0.35,0.26,0.87,0.44,1.57,0.55l4.75,0.82
			c2.35,0.39,4.08,1.08,5.2,2.06s1.69,2.31,1.69,3.99c0,1.59-0.46,2.99-1.39,4.19s-2.23,2.14-3.9,2.81
			C546.43,300.19,544.49,300.53,542.29,300.53z"/>
		<path class="st0" d="M571.36,277.6v6.33h-16.4v-6.33H571.36z M558.52,271.67h8.38v20.38c0,0.62,0.13,1.04,0.39,1.29
			c0.26,0.25,0.75,0.37,1.48,0.37c0.35,0,0.8-0.01,1.36-0.02s0.94-0.03,1.15-0.04l0.21,6.3c-0.5,0.06-1.19,0.09-2.05,0.12
			c-0.87,0.02-1.75,0.03-2.66,0.03c-2.85,0-4.94-0.54-6.26-1.63c-1.33-1.09-1.99-2.79-1.99-5.09V271.67z"/>
		<path class="st0" d="M584.91,300.49c-2.33,0-4.39-0.49-6.18-1.47c-1.79-0.98-3.17-2.35-4.16-4.11c-0.98-1.76-1.48-3.79-1.48-6.09
			c0-2.3,0.49-4.33,1.48-6.08c0.98-1.75,2.35-3.12,4.09-4.12s3.76-1.49,6.05-1.49c1.73,0,3.3,0.28,4.71,0.83
			c1.41,0.55,2.63,1.34,3.67,2.36s1.83,2.23,2.39,3.63s0.84,2.96,0.84,4.68v2.16h-20.73v-4.67h16.9l-3.88,0.86
			c0-0.82-0.15-1.52-0.44-2.09c-0.29-0.57-0.71-1.01-1.26-1.31c-0.54-0.3-1.21-0.45-1.99-0.45c-0.78,0-1.45,0.15-2,0.45
			c-0.55,0.3-0.97,0.74-1.26,1.31c-0.29,0.57-0.43,1.27-0.43,2.09v3.62c0,0.87,0.16,1.6,0.47,2.21c0.31,0.61,0.77,1.06,1.37,1.37
			c0.6,0.31,1.31,0.46,2.12,0.46c0.6,0,1.14-0.08,1.61-0.23s0.88-0.37,1.21-0.66s0.58-0.63,0.73-1.04l7.41,0.23
			c-0.29,1.5-0.96,2.8-2,3.93c-1.04,1.12-2.36,2.01-3.95,2.65C588.64,300.17,586.86,300.49,584.91,300.49z"/>
		<path class="st0" d="M599.17,300.01V277.6h7.96l0.13,5.57h-0.38c0.35-1.4,0.88-2.54,1.6-3.44c0.72-0.89,1.56-1.55,2.52-1.97
			c0.96-0.42,1.98-0.63,3.04-0.63c1.65,0,3.08,0.5,4.3,1.49c1.22,0.99,1.99,2.56,2.31,4.71h-0.65c0.28-1.42,0.8-2.59,1.56-3.5
			c0.76-0.91,1.67-1.58,2.73-2.03c1.06-0.45,2.18-0.67,3.35-0.67c1.48,0,2.78,0.33,3.91,0.97c1.12,0.65,2,1.56,2.64,2.73
			c0.63,1.17,0.95,2.56,0.95,4.15v15.02h-8.38v-12.9c0-1.01-0.26-1.8-0.77-2.39c-0.52-0.59-1.21-0.88-2.07-0.88
			c-0.56,0-1.05,0.13-1.47,0.4c-0.42,0.26-0.74,0.64-0.97,1.12s-0.35,1.06-0.35,1.75v12.9h-7.98v-12.9c0-1.01-0.25-1.8-0.76-2.39
			c-0.51-0.59-1.2-0.88-2.06-0.88c-0.56,0-1.05,0.13-1.47,0.4c-0.42,0.26-0.74,0.64-0.97,1.12s-0.35,1.06-0.35,1.75v12.9H599.17z"/>
		<path class="st0" d="M645.64,300.4c-1.48,0-2.79-0.24-3.93-0.72c-1.14-0.48-2.03-1.21-2.67-2.18c-0.64-0.97-0.96-2.2-0.96-3.7
			c0-1.24,0.22-2.3,0.65-3.17c0.43-0.87,1.04-1.59,1.81-2.15c0.78-0.56,1.68-0.98,2.71-1.28c1.03-0.29,2.15-0.48,3.35-0.57
			c1.3-0.08,2.34-0.2,3.13-0.35c0.79-0.15,1.36-0.35,1.71-0.6c0.35-0.25,0.52-0.59,0.52-1.01v-0.08c0-0.34-0.11-0.63-0.31-0.88
			c-0.21-0.25-0.5-0.44-0.88-0.58s-0.82-0.2-1.34-0.2c-0.54,0-1.02,0.08-1.42,0.23c-0.41,0.15-0.73,0.38-0.96,0.68
			c-0.24,0.3-0.39,0.67-0.46,1.12l-7.64-0.17c0.15-1.59,0.65-2.96,1.5-4.11c0.84-1.14,2.04-2.03,3.59-2.65
			c1.55-0.62,3.45-0.93,5.7-0.93c1.69,0,3.19,0.18,4.5,0.53s2.42,0.87,3.33,1.55c0.91,0.68,1.59,1.5,2.05,2.46
			c0.46,0.96,0.69,2.05,0.69,3.27v15.06h-8.11v-3.14h-0.1c-0.49,0.88-1.05,1.58-1.69,2.09c-0.64,0.52-1.35,0.89-2.14,1.11
			C647.48,300.29,646.61,300.4,645.64,300.4z M648.37,295.17c0.61,0,1.2-0.12,1.77-0.36s1.03-0.59,1.38-1.05
			c0.36-0.46,0.53-1.03,0.53-1.7v-1.8c-0.21,0.08-0.43,0.16-0.67,0.23c-0.24,0.07-0.49,0.14-0.75,0.2
			c-0.27,0.06-0.56,0.13-0.88,0.19s-0.67,0.13-1.05,0.2c-0.59,0.1-1.09,0.25-1.5,0.45c-0.41,0.2-0.73,0.45-0.94,0.75
			s-0.32,0.64-0.32,1.02c0,0.39,0.1,0.73,0.31,1c0.21,0.28,0.5,0.49,0.86,0.64C647.47,295.09,647.89,295.17,648.37,295.17z"/>
		<path class="st0" d="M680.7,300.47c-1.87,0-3.52-0.47-4.94-1.41c-1.42-0.94-2.53-2.29-3.33-4.03s-1.19-3.83-1.19-6.24
			c0-2.39,0.41-4.45,1.24-6.19c0.82-1.74,1.94-3.08,3.36-4.03c1.42-0.95,3.01-1.42,4.79-1.42c1,0,1.9,0.14,2.68,0.42
			c0.78,0.28,1.47,0.69,2.06,1.23c0.59,0.54,1.1,1.2,1.52,1.98h0.04V268.8h8.4v31.21h-8.31v-3.52h-0.06
			c-0.32,0.84-0.78,1.56-1.38,2.16s-1.31,1.05-2.13,1.36C682.62,300.31,681.71,300.47,680.7,300.47z M683.32,293.91
			c0.77,0,1.45-0.21,2.03-0.63c0.59-0.42,1.04-1.01,1.36-1.78c0.32-0.77,0.48-1.68,0.48-2.72c0-1.05-0.16-1.95-0.48-2.71
			c-0.32-0.76-0.78-1.35-1.36-1.77c-0.59-0.42-1.26-0.63-2.03-0.63c-0.75,0-1.4,0.21-1.94,0.63c-0.54,0.42-0.95,1.01-1.22,1.77
			c-0.28,0.76-0.42,1.67-0.42,2.71c0,1.05,0.14,1.95,0.42,2.72c0.28,0.77,0.69,1.36,1.22,1.78
			C681.92,293.7,682.57,293.91,683.32,293.91z"/>
		<path class="st0" d="M710.05,300.49c-2.33,0-4.39-0.49-6.18-1.47c-1.79-0.98-3.17-2.35-4.16-4.11c-0.98-1.76-1.48-3.79-1.48-6.09
			c0-2.3,0.49-4.33,1.48-6.08c0.98-1.75,2.35-3.12,4.09-4.12s3.76-1.49,6.05-1.49c1.73,0,3.3,0.28,4.71,0.83
			c1.41,0.55,2.63,1.34,3.67,2.36s1.83,2.23,2.39,3.63s0.84,2.96,0.84,4.68v2.16h-20.73v-4.67h16.9l-3.88,0.86
			c0-0.82-0.15-1.52-0.44-2.09c-0.29-0.57-0.71-1.01-1.26-1.31c-0.54-0.3-1.21-0.45-1.99-0.45c-0.78,0-1.45,0.15-2,0.45
			c-0.55,0.3-0.97,0.74-1.26,1.31c-0.29,0.57-0.43,1.27-0.43,2.09v3.62c0,0.87,0.16,1.6,0.47,2.21c0.31,0.61,0.77,1.06,1.37,1.37
			c0.6,0.31,1.31,0.46,2.12,0.46c0.6,0,1.14-0.08,1.61-0.23s0.88-0.37,1.21-0.66s0.58-0.63,0.73-1.04l7.41,0.23
			c-0.29,1.5-0.96,2.8-2,3.93c-1.04,1.12-2.36,2.01-3.95,2.65C713.78,300.17,712,300.49,710.05,300.49z"/>
		<path class="st0" d="M732.33,308.76V277.6h8.29v3.06h0.13c0.4-0.74,0.9-1.37,1.5-1.9s1.29-0.92,2.08-1.2s1.69-0.42,2.68-0.42
			c1.79,0,3.39,0.47,4.81,1.42c1.42,0.95,2.54,2.29,3.36,4.03c0.82,1.74,1.24,3.8,1.24,6.19c0,2.42-0.4,4.5-1.2,6.24
			c-0.8,1.75-1.91,3.09-3.33,4.03c-1.42,0.94-3.07,1.41-4.95,1.41c-0.99,0-1.89-0.15-2.69-0.46c-0.8-0.31-1.49-0.75-2.07-1.32
			c-0.58-0.57-1.04-1.26-1.37-2.07h-0.08v12.15H732.33z M744.31,293.91c0.77,0,1.42-0.21,1.95-0.63c0.53-0.42,0.94-1.01,1.23-1.78
			c0.29-0.77,0.43-1.68,0.43-2.72c0-1.05-0.14-1.95-0.43-2.71c-0.29-0.76-0.69-1.35-1.23-1.77c-0.53-0.42-1.18-0.63-1.95-0.63
			c-0.75,0-1.42,0.21-2.01,0.63c-0.59,0.42-1.04,1.01-1.37,1.77c-0.33,0.76-0.49,1.67-0.49,2.71c0,1.05,0.16,1.95,0.49,2.72
			c0.33,0.77,0.79,1.36,1.37,1.78C742.89,293.7,743.56,293.91,744.31,293.91z"/>
		<path class="st0" d="M759.33,300.01V277.6h8.13v4.13h0.08c0.41-1.54,1.04-2.62,1.92-3.25c0.87-0.63,2.03-0.94,3.49-0.94
			c0.4,0,0.77,0.01,1.11,0.02s0.67,0.04,1.01,0.06v6.81c-0.32-0.04-0.79-0.07-1.39-0.08s-1.17-0.02-1.69-0.02
			c-0.85,0-1.6,0.19-2.24,0.58c-0.64,0.38-1.14,0.93-1.5,1.64c-0.36,0.71-0.53,1.55-0.53,2.51v10.95H759.33z"/>
		<path class="st0" d="M788.27,300.49c-2.42,0-4.53-0.48-6.35-1.43s-3.22-2.31-4.22-4.06c-1-1.75-1.5-3.81-1.5-6.17
			c0-2.37,0.5-4.43,1.5-6.18c1-1.75,2.4-3.1,4.22-4.06c1.82-0.96,3.93-1.45,6.35-1.45c2.43,0,4.55,0.48,6.36,1.45
			c1.81,0.96,3.21,2.32,4.21,4.06c1,1.75,1.5,3.8,1.5,6.18c0,2.36-0.5,4.42-1.5,6.17c-1,1.75-2.4,3.11-4.21,4.06
			C792.82,300.01,790.7,300.49,788.27,300.49z M788.27,294.02c0.68,0,1.29-0.2,1.83-0.6c0.54-0.4,0.96-0.98,1.28-1.76
			c0.31-0.77,0.47-1.73,0.47-2.86s-0.16-2.08-0.47-2.85c-0.31-0.77-0.74-1.35-1.28-1.74c-0.54-0.39-1.15-0.59-1.83-0.59
			c-0.67,0-1.28,0.2-1.82,0.59c-0.54,0.39-0.97,0.97-1.29,1.74c-0.31,0.77-0.47,1.72-0.47,2.85s0.16,2.08,0.47,2.86
			c0.31,0.78,0.74,1.36,1.29,1.76C787,293.82,787.6,294.02,788.27,294.02z"/>
		<path class="st0" d="M803.23,308.61l0.4-6.28l2.85,0.06c0.61,0.06,1.1,0.02,1.46-0.09c0.36-0.12,0.63-0.33,0.82-0.65
			c0.19-0.31,0.32-0.72,0.41-1.23l0.04-0.42l-8.52-22.41h8.73l2.85,9.68c0.45,1.52,0.85,3.05,1.21,4.59
			c0.36,1.54,0.73,3.11,1.11,4.71h-2.2c0.36-1.61,0.74-3.18,1.12-4.72c0.38-1.54,0.81-3.07,1.29-4.58l2.97-9.68h8.65l-9.4,25.07
			c-0.52,1.4-1.13,2.55-1.84,3.46c-0.71,0.91-1.58,1.58-2.61,2.02s-2.27,0.66-3.74,0.66c-0.94,0-1.89-0.02-2.86-0.05
			S804.08,308.67,803.23,308.61z"/>
		<path class="st0" d="M838.56,300.49c-2.33,0-4.39-0.49-6.18-1.47c-1.79-0.98-3.17-2.35-4.16-4.11c-0.98-1.76-1.48-3.79-1.48-6.09
			c0-2.3,0.49-4.33,1.48-6.08c0.98-1.75,2.35-3.12,4.09-4.12s3.76-1.49,6.05-1.49c1.73,0,3.3,0.28,4.71,0.83
			c1.41,0.55,2.63,1.34,3.67,2.36s1.83,2.23,2.39,3.63s0.84,2.96,0.84,4.68v2.16h-20.73v-4.67h16.9l-3.88,0.86
			c0-0.82-0.15-1.52-0.44-2.09c-0.29-0.57-0.71-1.01-1.26-1.31c-0.54-0.3-1.21-0.45-1.99-0.45c-0.78,0-1.45,0.15-2,0.45
			c-0.55,0.3-0.97,0.74-1.26,1.31c-0.29,0.57-0.43,1.27-0.43,2.09v3.62c0,0.87,0.16,1.6,0.47,2.21c0.31,0.61,0.77,1.06,1.37,1.37
			c0.6,0.31,1.31,0.46,2.12,0.46c0.6,0,1.14-0.08,1.61-0.23s0.88-0.37,1.21-0.66s0.58-0.63,0.73-1.04l7.41,0.23
			c-0.29,1.5-0.96,2.8-2,3.93c-1.04,1.12-2.36,2.01-3.95,2.65C842.29,300.17,840.52,300.49,838.56,300.49z"/>
		<path class="st0" d="M863.86,300.49c-2.4,0-4.49-0.48-6.27-1.46s-3.16-2.34-4.14-4.09c-0.98-1.76-1.47-3.8-1.47-6.12
			c0-2.33,0.49-4.37,1.47-6.13c0.98-1.75,2.36-3.12,4.14-4.09c1.78-0.98,3.87-1.47,6.27-1.47c1.62,0,3.1,0.23,4.45,0.69
			s2.52,1.11,3.51,1.95c0.99,0.84,1.77,1.84,2.35,3.01c0.57,1.17,0.9,2.45,0.98,3.86l-7.96,0.25c-0.04-0.52-0.15-0.98-0.31-1.38
			s-0.39-0.75-0.67-1.04s-0.6-0.51-0.97-0.66c-0.37-0.15-0.78-0.23-1.22-0.23c-0.74,0-1.37,0.21-1.9,0.62
			c-0.52,0.41-0.93,1.01-1.21,1.78c-0.29,0.78-0.43,1.71-0.43,2.82c0,1.1,0.14,2.05,0.43,2.83c0.29,0.78,0.69,1.38,1.23,1.79
			c0.53,0.41,1.16,0.62,1.88,0.62c0.45,0,0.85-0.08,1.22-0.23s0.7-0.38,0.97-0.67c0.28-0.29,0.5-0.65,0.67-1.07s0.27-0.89,0.31-1.42
			l7.96,0.25c-0.04,1.42-0.34,2.72-0.89,3.9s-1.33,2.19-2.33,3.04s-2.18,1.51-3.55,1.97C867.02,300.26,865.51,300.49,863.86,300.49z
			"/>
		<path class="st0" d="M892.95,277.6v6.33h-16.4v-6.33H892.95z M880.11,271.67h8.38v20.38c0,0.62,0.13,1.04,0.39,1.29
			c0.26,0.25,0.75,0.37,1.48,0.37c0.35,0,0.8-0.01,1.36-0.02s0.94-0.03,1.15-0.04l0.21,6.3c-0.5,0.06-1.19,0.09-2.05,0.12
			c-0.87,0.02-1.75,0.03-2.66,0.03c-2.85,0-4.94-0.54-6.26-1.63c-1.33-1.09-1.99-2.79-1.99-5.09V271.67z"/>
		<path class="st0" d="M906.76,300.49c-2.42,0-4.53-0.48-6.35-1.43s-3.22-2.31-4.22-4.06c-1-1.75-1.5-3.81-1.5-6.17
			c0-2.37,0.5-4.43,1.5-6.18c1-1.75,2.4-3.1,4.22-4.06c1.82-0.96,3.93-1.45,6.35-1.45c2.43,0,4.55,0.48,6.36,1.45
			c1.81,0.96,3.21,2.32,4.21,4.06c1,1.75,1.5,3.8,1.5,6.18c0,2.36-0.5,4.42-1.5,6.17c-1,1.75-2.4,3.11-4.21,4.06
			C911.3,300.01,909.18,300.49,906.76,300.49z M906.76,294.02c0.68,0,1.29-0.2,1.83-0.6c0.54-0.4,0.96-0.98,1.28-1.76
			c0.31-0.77,0.47-1.73,0.47-2.86s-0.16-2.08-0.47-2.85c-0.31-0.77-0.74-1.35-1.28-1.74c-0.54-0.39-1.15-0.59-1.83-0.59
			c-0.67,0-1.28,0.2-1.82,0.59c-0.54,0.39-0.97,0.97-1.29,1.74c-0.31,0.77-0.47,1.72-0.47,2.85s0.16,2.08,0.47,2.86
			c0.31,0.78,0.74,1.36,1.29,1.76C905.48,293.82,906.08,294.02,906.76,294.02z"/>
		<path class="st0" d="M932.18,300.53c-2.18,0-4.1-0.32-5.76-0.95c-1.66-0.63-2.99-1.53-3.98-2.69c-0.99-1.16-1.57-2.51-1.74-4.06
			l8.15-0.25c0.14,0.71,0.48,1.29,1.04,1.72s1.31,0.65,2.27,0.65c0.82,0,1.46-0.13,1.92-0.39c0.45-0.26,0.68-0.6,0.68-1.04
			c0-0.39-0.21-0.71-0.62-0.95s-1.04-0.44-1.9-0.58l-4.15-0.69c-2.25-0.38-3.96-1.13-5.13-2.25s-1.76-2.59-1.76-4.39
			c0-1.55,0.42-2.88,1.26-3.99c0.84-1.11,2.05-1.96,3.63-2.57c1.58-0.6,3.48-0.9,5.69-0.9c2.19,0,4.08,0.31,5.68,0.92
			s2.83,1.48,3.73,2.61s1.38,2.47,1.47,4.03l-7.58,0.23c-0.04-0.67-0.34-1.21-0.91-1.62c-0.57-0.41-1.26-0.62-2.08-0.62
			c-0.78,0-1.4,0.13-1.85,0.4c-0.45,0.27-0.68,0.62-0.68,1.05c0,0.35,0.17,0.65,0.52,0.91c0.35,0.26,0.87,0.44,1.57,0.55l4.75,0.82
			c2.35,0.39,4.08,1.08,5.2,2.06s1.69,2.31,1.69,3.99c0,1.59-0.46,2.99-1.39,4.19s-2.23,2.14-3.9,2.81
			C936.33,300.19,934.39,300.53,932.18,300.53z"/>
		<path class="st0" d="M961.61,300.47c-1.63,0-3.02-0.36-4.16-1.08c-1.14-0.72-2-1.73-2.58-3.04s-0.87-2.84-0.87-4.6V277.6h8.38
			v12.32c0,1.12,0.28,1.98,0.83,2.6s1.32,0.92,2.31,0.92c0.67,0,1.24-0.14,1.71-0.42s0.82-0.7,1.07-1.27
			c0.24-0.57,0.37-1.27,0.37-2.1V277.6h8.4v22.41h-8.19l-0.04-6.07h0.9c-0.66,1.9-1.62,3.46-2.88,4.69S963.84,300.47,961.61,300.47z
			"/>
		<path class="st0" d="M989.19,287.96v12.04h-8.38V277.6H989l0.02,6.07h-0.9c0.66-1.88,1.62-3.45,2.89-4.68s3.02-1.85,5.24-1.85
			c1.65,0,3.04,0.36,4.17,1.08c1.13,0.72,1.99,1.73,2.58,3.04c0.59,1.31,0.88,2.84,0.88,4.6v14.16h-8.4v-12.32
			c0-1.12-0.27-1.98-0.82-2.6c-0.54-0.61-1.32-0.92-2.33-0.92c-0.66,0-1.22,0.14-1.7,0.42s-0.83,0.7-1.08,1.27
			S989.19,287.12,989.19,287.96z"/>
		<path class="st0" d="M1011.77,275.92c-1.27,0-2.32-0.38-3.14-1.13c-0.82-0.75-1.24-1.7-1.24-2.85c0-1.16,0.41-2.11,1.24-2.86
			c0.82-0.75,1.87-1.12,3.14-1.12c1.27,0,2.32,0.37,3.15,1.12c0.83,0.75,1.25,1.7,1.25,2.86c0,1.15-0.42,2.09-1.25,2.85
			C1014.09,275.54,1013.04,275.92,1011.77,275.92z M1007.62,300.01V277.6h8.38v22.41H1007.62z"/>
		<path class="st0" d="M1025.89,300.01l-8-22.41h8.73l2.76,9.68c0.45,1.52,0.86,3.05,1.25,4.6s0.76,3.11,1.14,4.7h-1.84
			c0.38-1.59,0.75-3.16,1.12-4.7s0.76-3.08,1.18-4.6l2.72-9.68h8.65l-8.02,22.41H1025.89z"/>
		<path class="st0" d="M1055.73,300.49c-2.33,0-4.39-0.49-6.18-1.47c-1.79-0.98-3.17-2.35-4.16-4.11c-0.98-1.76-1.48-3.79-1.48-6.09
			c0-2.3,0.49-4.33,1.48-6.08c0.98-1.75,2.35-3.12,4.09-4.12s3.76-1.49,6.05-1.49c1.73,0,3.3,0.28,4.71,0.83
			c1.41,0.55,2.63,1.34,3.67,2.36s1.83,2.23,2.39,3.63s0.84,2.96,0.84,4.68v2.16h-20.73v-4.67h16.9l-3.88,0.86
			c0-0.82-0.15-1.52-0.44-2.09c-0.29-0.57-0.71-1.01-1.26-1.31c-0.54-0.3-1.21-0.45-1.99-0.45c-0.78,0-1.45,0.15-2,0.45
			c-0.55,0.3-0.97,0.74-1.26,1.31c-0.29,0.57-0.43,1.27-0.43,2.09v3.62c0,0.87,0.16,1.6,0.47,2.21c0.31,0.61,0.77,1.06,1.37,1.37
			c0.6,0.31,1.31,0.46,2.12,0.46c0.6,0,1.14-0.08,1.61-0.23s0.88-0.37,1.21-0.66s0.58-0.63,0.73-1.04l7.41,0.23
			c-0.29,1.5-0.96,2.8-2,3.93c-1.04,1.12-2.36,2.01-3.95,2.65C1059.46,300.17,1057.69,300.49,1055.73,300.49z"/>
		<path class="st0" d="M1069.99,300.01V277.6h8.13v4.13h0.08c0.41-1.54,1.04-2.62,1.92-3.25c0.87-0.63,2.03-0.94,3.49-0.94
			c0.4,0,0.77,0.01,1.11,0.02s0.67,0.04,1.01,0.06v6.81c-0.32-0.04-0.79-0.07-1.39-0.08s-1.17-0.02-1.69-0.02
			c-0.85,0-1.6,0.19-2.24,0.58c-0.64,0.38-1.14,0.93-1.5,1.64c-0.36,0.71-0.53,1.55-0.53,2.51v10.95H1069.99z"/>
		<path class="st0" d="M1098.44,300.53c-2.18,0-4.1-0.32-5.76-0.95c-1.66-0.63-2.99-1.53-3.98-2.69c-0.99-1.16-1.57-2.51-1.74-4.06
			l8.15-0.25c0.14,0.71,0.48,1.29,1.04,1.72s1.31,0.65,2.27,0.65c0.82,0,1.46-0.13,1.92-0.39c0.45-0.26,0.68-0.6,0.68-1.04
			c0-0.39-0.21-0.71-0.62-0.95s-1.04-0.44-1.9-0.58l-4.15-0.69c-2.25-0.38-3.96-1.13-5.13-2.25s-1.76-2.59-1.76-4.39
			c0-1.55,0.42-2.88,1.26-3.99c0.84-1.11,2.05-1.96,3.63-2.57c1.58-0.6,3.48-0.9,5.69-0.9c2.19,0,4.08,0.31,5.68,0.92
			s2.83,1.48,3.73,2.61s1.38,2.47,1.47,4.03l-7.58,0.23c-0.04-0.67-0.34-1.21-0.91-1.62c-0.57-0.41-1.26-0.62-2.08-0.62
			c-0.78,0-1.4,0.13-1.85,0.4c-0.45,0.27-0.68,0.62-0.68,1.05c0,0.35,0.17,0.65,0.52,0.91c0.35,0.26,0.87,0.44,1.57,0.55l4.75,0.82
			c2.35,0.39,4.08,1.08,5.2,2.06s1.69,2.31,1.69,3.99c0,1.59-0.46,2.99-1.39,4.19s-2.23,2.14-3.9,2.81
			C1102.58,300.19,1100.64,300.53,1098.44,300.53z"/>
		<path class="st0" d="M1116.39,275.92c-1.27,0-2.32-0.38-3.14-1.13c-0.82-0.75-1.24-1.7-1.24-2.85c0-1.16,0.41-2.11,1.24-2.86
			c0.82-0.75,1.87-1.12,3.14-1.12c1.27,0,2.32,0.37,3.15,1.12c0.83,0.75,1.25,1.7,1.25,2.86c0,1.15-0.42,2.09-1.25,2.85
			C1118.71,275.54,1117.66,275.92,1116.39,275.92z M1112.24,300.01V277.6h8.38v22.41H1112.24z"/>
		<path class="st0" d="M1139.49,277.6v6.33h-16.4v-6.33H1139.49z M1126.65,271.67h8.38v20.38c0,0.62,0.13,1.04,0.39,1.29
			c0.26,0.25,0.75,0.37,1.48,0.37c0.35,0,0.8-0.01,1.36-0.02s0.94-0.03,1.15-0.04l0.21,6.3c-0.5,0.06-1.19,0.09-2.05,0.12
			c-0.87,0.02-1.75,0.03-2.66,0.03c-2.85,0-4.94-0.54-6.26-1.63c-1.33-1.09-1.99-2.79-1.99-5.09V271.67z"/>
		<path class="st0" d="M1149.25,300.4c-1.48,0-2.79-0.24-3.93-0.72c-1.14-0.48-2.03-1.21-2.67-2.18c-0.64-0.97-0.96-2.2-0.96-3.7
			c0-1.24,0.22-2.3,0.65-3.17c0.43-0.87,1.04-1.59,1.81-2.15c0.78-0.56,1.68-0.98,2.71-1.28c1.03-0.29,2.15-0.48,3.35-0.57
			c1.3-0.08,2.34-0.2,3.13-0.35c0.79-0.15,1.36-0.35,1.71-0.6c0.35-0.25,0.52-0.59,0.52-1.01v-0.08c0-0.34-0.11-0.63-0.31-0.88
			c-0.21-0.25-0.5-0.44-0.88-0.58s-0.82-0.2-1.34-0.2c-0.54,0-1.02,0.08-1.42,0.23c-0.41,0.15-0.73,0.38-0.96,0.68
			c-0.24,0.3-0.39,0.67-0.46,1.12l-7.64-0.17c0.15-1.59,0.65-2.96,1.5-4.11c0.84-1.14,2.04-2.03,3.59-2.65
			c1.55-0.62,3.45-0.93,5.7-0.93c1.69,0,3.19,0.18,4.5,0.53s2.42,0.87,3.33,1.55c0.91,0.68,1.59,1.5,2.05,2.46
			c0.46,0.96,0.69,2.05,0.69,3.27v15.06h-8.11v-3.14h-0.1c-0.49,0.88-1.05,1.58-1.69,2.09c-0.64,0.52-1.35,0.89-2.14,1.11
			C1151.09,300.29,1150.21,300.4,1149.25,300.4z M1151.97,295.17c0.61,0,1.2-0.12,1.77-0.36s1.03-0.59,1.38-1.05
			c0.36-0.46,0.53-1.03,0.53-1.7v-1.8c-0.21,0.08-0.43,0.16-0.67,0.23c-0.24,0.07-0.49,0.14-0.75,0.2
			c-0.27,0.06-0.56,0.13-0.88,0.19s-0.67,0.13-1.05,0.2c-0.59,0.1-1.09,0.25-1.5,0.45c-0.41,0.2-0.73,0.45-0.94,0.75
			s-0.32,0.64-0.32,1.02c0,0.39,0.1,0.73,0.31,1c0.21,0.28,0.5,0.49,0.86,0.64C1151.08,295.09,1151.49,295.17,1151.97,295.17z"/>
		<path class="st0" d="M1167.66,300.01V277.6h8.13v4.13h0.08c0.41-1.54,1.04-2.62,1.92-3.25c0.87-0.63,2.03-0.94,3.49-0.94
			c0.4,0,0.77,0.01,1.11,0.02s0.67,0.04,1.01,0.06v6.81c-0.32-0.04-0.79-0.07-1.39-0.08s-1.17-0.02-1.69-0.02
			c-0.85,0-1.6,0.19-2.24,0.58c-0.64,0.38-1.14,0.93-1.5,1.64c-0.36,0.71-0.53,1.55-0.53,2.51v10.95H1167.66z"/>
		<path class="st0" d="M1190.15,275.92c-1.27,0-2.32-0.38-3.14-1.13c-0.82-0.75-1.24-1.7-1.24-2.85c0-1.16,0.41-2.11,1.24-2.86
			c0.82-0.75,1.87-1.12,3.14-1.12c1.27,0,2.32,0.37,3.15,1.12c0.83,0.75,1.25,1.7,1.25,2.86c0,1.15-0.42,2.09-1.25,2.85
			C1192.47,275.54,1191.42,275.92,1190.15,275.92z M1186,300.01V277.6h8.38v22.41H1186z"/>
		<path class="st0" d="M1209.38,300.49c-2.42,0-4.53-0.48-6.35-1.43s-3.22-2.31-4.22-4.06c-1-1.75-1.5-3.81-1.5-6.17
			c0-2.37,0.5-4.43,1.5-6.18c1-1.75,2.4-3.1,4.22-4.06c1.82-0.96,3.93-1.45,6.35-1.45c2.43,0,4.55,0.48,6.36,1.45
			c1.81,0.96,3.21,2.32,4.21,4.06c1,1.75,1.5,3.8,1.5,6.18c0,2.36-0.5,4.42-1.5,6.17c-1,1.75-2.4,3.11-4.21,4.06
			C1213.93,300.01,1211.81,300.49,1209.38,300.49z M1209.38,294.02c0.68,0,1.29-0.2,1.83-0.6c0.54-0.4,0.96-0.98,1.28-1.76
			c0.31-0.77,0.47-1.73,0.47-2.86s-0.16-2.08-0.47-2.85c-0.31-0.77-0.74-1.35-1.28-1.74c-0.54-0.39-1.15-0.59-1.83-0.59
			c-0.67,0-1.28,0.2-1.82,0.59c-0.54,0.39-0.97,0.97-1.29,1.74c-0.31,0.77-0.47,1.72-0.47,2.85s0.16,2.08,0.47,2.86
			c0.31,0.78,0.74,1.36,1.29,1.76C1208.1,293.82,1208.71,294.02,1209.38,294.02z"/>
		<path class="st0" d="M1234.8,300.53c-2.18,0-4.1-0.32-5.76-0.95c-1.66-0.63-2.99-1.53-3.98-2.69c-0.99-1.16-1.57-2.51-1.74-4.06
			l8.15-0.25c0.14,0.71,0.48,1.29,1.04,1.72s1.31,0.65,2.27,0.65c0.82,0,1.46-0.13,1.92-0.39c0.45-0.26,0.68-0.6,0.68-1.04
			c0-0.39-0.21-0.71-0.62-0.95s-1.04-0.44-1.9-0.58l-4.15-0.69c-2.25-0.38-3.96-1.13-5.13-2.25s-1.76-2.59-1.76-4.39
			c0-1.55,0.42-2.88,1.26-3.99c0.84-1.11,2.05-1.96,3.63-2.57c1.58-0.6,3.48-0.9,5.69-0.9c2.19,0,4.08,0.31,5.68,0.92
			s2.83,1.48,3.73,2.61s1.38,2.47,1.47,4.03l-7.58,0.23c-0.04-0.67-0.34-1.21-0.91-1.62c-0.57-0.41-1.26-0.62-2.08-0.62
			c-0.78,0-1.4,0.13-1.85,0.4c-0.45,0.27-0.68,0.62-0.68,1.05c0,0.35,0.17,0.65,0.52,0.91c0.35,0.26,0.87,0.44,1.57,0.55l4.75,0.82
			c2.35,0.39,4.08,1.08,5.2,2.06s1.69,2.31,1.69,3.99c0,1.59-0.46,2.99-1.39,4.19s-2.23,2.14-3.9,2.81
			C1238.95,300.19,1237.01,300.53,1234.8,300.53z"/>
	</g>
</g>
</svg>
